<mxfile modified="2022-07-18T08:05:05.502Z" host="app.diagrams.net" agent="5.0 (Windows NT 10.0; Win64; x64) AppleWebKit/537.36 (KHTML, like Gecko) Chrome/104.0.0.0 Safari/537.36" etag="ky6jn7r_fI9lyOTqAkvw" version="20.1.1" type="github">
  <diagram id="Ht1M8jgEwFfnCIfOTk4-" name="Page-1">
    <mxGraphModel dx="1209" dy="1568" grid="1" gridSize="10" guides="1" tooltips="1" connect="1" arrows="1" fold="1" page="1" pageScale="1" pageWidth="1169" pageHeight="827" math="0" shadow="0">
      <root>
        <mxCell id="0" />
        <mxCell id="1" parent="0" />
        <mxCell id="UEzPUAAOIrF-is8g5C7q-107" value="" style="rounded=0;whiteSpace=wrap;html=1;labelBackgroundColor=none;fillColor=none;dashed=1;container=1;pointerEvents=0;collapsible=0;recursiveResize=0;" parent="1" vertex="1">
          <mxGeometry x="280" y="290" width="540" height="940" as="geometry" />
        </mxCell>
        <mxCell id="tLcVWLizjV6hdJb5gyHF-14" value="" style="dashed=0;outlineConnect=0;html=1;align=center;labelPosition=center;verticalLabelPosition=bottom;verticalAlign=top;shape=mxgraph.weblogos.chrome" vertex="1" parent="UEzPUAAOIrF-is8g5C7q-107">
          <mxGeometry x="30" y="24.599999999999994" width="74.8" height="75.4" as="geometry" />
        </mxCell>
        <mxCell id="tLcVWLizjV6hdJb5gyHF-15" value="&lt;font style=&quot;vertical-align: inherit;&quot;&gt;&lt;font style=&quot;vertical-align: inherit;&quot;&gt;第二个爬虫&lt;br&gt;Selenium网页下滑截图&lt;br&gt;注：图片文件名为域名&lt;br&gt;&lt;/font&gt;&lt;/font&gt;" style="text;html=1;align=center;verticalAlign=middle;resizable=0;points=[];autosize=1;strokeColor=none;fillColor=none;" vertex="1" parent="UEzPUAAOIrF-is8g5C7q-107">
          <mxGeometry x="-7.600000000000023" y="90" width="150" height="60" as="geometry" />
        </mxCell>
        <mxCell id="UEzPUAAOIrF-is8g5C7q-90" value="" style="edgeStyle=orthogonalEdgeStyle;rounded=0;orthogonalLoop=1;jettySize=auto;html=1;endArrow=open;endFill=0;strokeWidth=2;" parent="UEzPUAAOIrF-is8g5C7q-107" source="tLcVWLizjV6hdJb5gyHF-14" target="tLcVWLizjV6hdJb5gyHF-19" edge="1">
          <mxGeometry relative="1" as="geometry">
            <mxPoint x="100" y="60" as="sourcePoint" />
            <mxPoint x="170" y="62.299999999999955" as="targetPoint" />
          </mxGeometry>
        </mxCell>
        <mxCell id="tLcVWLizjV6hdJb5gyHF-19" value="" style="sketch=0;outlineConnect=0;fontColor=#232F3E;gradientColor=none;fillColor=#4D27AA;strokeColor=none;dashed=0;verticalLabelPosition=bottom;verticalAlign=top;align=center;html=1;fontSize=12;fontStyle=0;aspect=fixed;pointerEvents=1;shape=mxgraph.aws4.cluster;" vertex="1" parent="UEzPUAAOIrF-is8g5C7q-107">
          <mxGeometry x="142.4" y="23.299999999999994" width="78" height="78" as="geometry" />
        </mxCell>
        <mxCell id="tLcVWLizjV6hdJb5gyHF-20" value="图片聚类&lt;br&gt;k-means" style="text;html=1;align=center;verticalAlign=middle;resizable=0;points=[];autosize=1;strokeColor=none;fillColor=none;" vertex="1" parent="UEzPUAAOIrF-is8g5C7q-107">
          <mxGeometry x="150" y="100" width="70" height="40" as="geometry" />
        </mxCell>
        <mxCell id="tLcVWLizjV6hdJb5gyHF-22" value="检测网页截图中&lt;br&gt;是否包含二维码、&lt;br&gt;支付、下载字样" style="text;html=1;align=center;verticalAlign=middle;resizable=0;points=[];autosize=1;strokeColor=none;fillColor=none;" vertex="1" parent="UEzPUAAOIrF-is8g5C7q-107">
          <mxGeometry x="240" y="94" width="120" height="60" as="geometry" />
        </mxCell>
        <mxCell id="tLcVWLizjV6hdJb5gyHF-25" value="" style="sketch=0;outlineConnect=0;fontColor=#232F3E;gradientColor=none;fillColor=#B0084D;strokeColor=none;dashed=0;verticalLabelPosition=bottom;verticalAlign=top;align=center;html=1;fontSize=12;fontStyle=0;aspect=fixed;pointerEvents=1;shape=mxgraph.aws4.documents;" vertex="1" parent="UEzPUAAOIrF-is8g5C7q-107">
          <mxGeometry x="190" y="150" width="64" height="78" as="geometry" />
        </mxCell>
        <mxCell id="tLcVWLizjV6hdJb5gyHF-24" value="将分类后的域名存入数据库" style="text;html=1;align=center;verticalAlign=middle;resizable=0;points=[];autosize=1;strokeColor=none;fillColor=none;" vertex="1" parent="UEzPUAAOIrF-is8g5C7q-107">
          <mxGeometry x="29.99999999999997" y="190" width="170" height="30" as="geometry" />
        </mxCell>
        <mxCell id="tLcVWLizjV6hdJb5gyHF-27" value="包含支付的图片数据" style="text;html=1;align=center;verticalAlign=middle;resizable=0;points=[];autosize=1;strokeColor=none;fillColor=none;" vertex="1" parent="UEzPUAAOIrF-is8g5C7q-107">
          <mxGeometry x="275" y="420" width="130" height="30" as="geometry" />
        </mxCell>
        <mxCell id="tLcVWLizjV6hdJb5gyHF-26" value="包含下载，APP，&lt;br&gt;二维码的图片数据" style="text;html=1;align=center;verticalAlign=middle;resizable=0;points=[];autosize=1;strokeColor=none;fillColor=none;" vertex="1" parent="UEzPUAAOIrF-is8g5C7q-107">
          <mxGeometry x="144" y="415" width="120" height="40" as="geometry" />
        </mxCell>
        <mxCell id="tLcVWLizjV6hdJb5gyHF-44" value="Entity" style="swimlane;childLayout=stackLayout;horizontal=1;startSize=30;horizontalStack=0;rounded=1;fontSize=14;fontStyle=0;strokeWidth=2;resizeParent=0;resizeLast=1;shadow=0;dashed=0;align=center;" vertex="1" parent="UEzPUAAOIrF-is8g5C7q-107">
          <mxGeometry x="12" y="310" width="100" height="100" as="geometry" />
        </mxCell>
        <mxCell id="tLcVWLizjV6hdJb5gyHF-45" value="+Attribute1&#xa;+Attribute2&#xa;+Attribute3" style="align=left;strokeColor=none;fillColor=none;spacingLeft=4;fontSize=12;verticalAlign=top;resizable=0;rotatable=0;part=1;" vertex="1" parent="tLcVWLizjV6hdJb5gyHF-44">
          <mxGeometry y="30" width="100" height="70" as="geometry" />
        </mxCell>
        <mxCell id="tLcVWLizjV6hdJb5gyHF-46" value="Entity" style="swimlane;childLayout=stackLayout;horizontal=1;startSize=30;horizontalStack=0;rounded=1;fontSize=14;fontStyle=0;strokeWidth=2;resizeParent=0;resizeLast=1;shadow=0;dashed=0;align=center;" vertex="1" parent="UEzPUAAOIrF-is8g5C7q-107">
          <mxGeometry x="154" y="310" width="100" height="100" as="geometry" />
        </mxCell>
        <mxCell id="tLcVWLizjV6hdJb5gyHF-47" value="+Attribute1&#xa;+Attribute2&#xa;+Attribute3" style="align=left;strokeColor=none;fillColor=none;spacingLeft=4;fontSize=12;verticalAlign=top;resizable=0;rotatable=0;part=1;" vertex="1" parent="tLcVWLizjV6hdJb5gyHF-46">
          <mxGeometry y="30" width="100" height="70" as="geometry" />
        </mxCell>
        <mxCell id="tLcVWLizjV6hdJb5gyHF-48" value="Entity" style="swimlane;childLayout=stackLayout;horizontal=1;startSize=30;horizontalStack=0;rounded=1;fontSize=14;fontStyle=0;strokeWidth=2;resizeParent=0;resizeLast=1;shadow=0;dashed=0;align=center;" vertex="1" parent="UEzPUAAOIrF-is8g5C7q-107">
          <mxGeometry x="290" y="310" width="100" height="100" as="geometry" />
        </mxCell>
        <mxCell id="tLcVWLizjV6hdJb5gyHF-49" value="+Attribute1&#xa;+Attribute2&#xa;+Attribute3" style="align=left;strokeColor=none;fillColor=none;spacingLeft=4;fontSize=12;verticalAlign=top;resizable=0;rotatable=0;part=1;" vertex="1" parent="tLcVWLizjV6hdJb5gyHF-48">
          <mxGeometry y="30" width="100" height="70" as="geometry" />
        </mxCell>
        <mxCell id="UEzPUAAOIrF-is8g5C7q-96" style="edgeStyle=orthogonalEdgeStyle;rounded=0;orthogonalLoop=1;jettySize=auto;html=1;endArrow=open;endFill=0;strokeWidth=2;startArrow=open;startFill=0;" parent="UEzPUAAOIrF-is8g5C7q-107" target="tLcVWLizjV6hdJb5gyHF-44" edge="1">
          <mxGeometry relative="1" as="geometry">
            <Array as="points">
              <mxPoint x="230" y="278" />
              <mxPoint x="60" y="278" />
            </Array>
            <mxPoint x="230" y="228" as="sourcePoint" />
            <mxPoint x="60" y="308" as="targetPoint" />
          </mxGeometry>
        </mxCell>
        <mxCell id="tLcVWLizjV6hdJb5gyHF-51" value="Entity" style="swimlane;childLayout=stackLayout;horizontal=1;startSize=30;horizontalStack=0;rounded=1;fontSize=14;fontStyle=0;strokeWidth=2;resizeParent=0;resizeLast=1;shadow=0;dashed=0;align=center;" vertex="1" parent="UEzPUAAOIrF-is8g5C7q-107">
          <mxGeometry x="420" y="310" width="100" height="100" as="geometry" />
        </mxCell>
        <mxCell id="tLcVWLizjV6hdJb5gyHF-52" value="+Attribute1&#xa;+Attribute2&#xa;+Attribute3" style="align=left;strokeColor=none;fillColor=none;spacingLeft=4;fontSize=12;verticalAlign=top;resizable=0;rotatable=0;part=1;" vertex="1" parent="tLcVWLizjV6hdJb5gyHF-51">
          <mxGeometry y="30" width="100" height="70" as="geometry" />
        </mxCell>
        <mxCell id="UEzPUAAOIrF-is8g5C7q-97" style="edgeStyle=orthogonalEdgeStyle;rounded=0;orthogonalLoop=1;jettySize=auto;html=1;endArrow=open;endFill=0;strokeWidth=2;startArrow=open;startFill=0;entryX=0.5;entryY=0;entryDx=0;entryDy=0;" parent="UEzPUAAOIrF-is8g5C7q-107" source="tLcVWLizjV6hdJb5gyHF-25" target="tLcVWLizjV6hdJb5gyHF-51" edge="1">
          <mxGeometry relative="1" as="geometry">
            <Array as="points">
              <mxPoint x="230" y="280" />
              <mxPoint x="469" y="280" />
            </Array>
            <mxPoint x="358" y="238" as="sourcePoint" />
            <mxPoint x="469" y="300" as="targetPoint" />
          </mxGeometry>
        </mxCell>
        <mxCell id="tLcVWLizjV6hdJb5gyHF-54" value="包含微信、QQ等字样" style="text;html=1;align=center;verticalAlign=middle;resizable=0;points=[];autosize=1;strokeColor=none;fillColor=none;" vertex="1" parent="UEzPUAAOIrF-is8g5C7q-107">
          <mxGeometry x="400" y="420" width="140" height="30" as="geometry" />
        </mxCell>
        <mxCell id="tLcVWLizjV6hdJb5gyHF-59" value="提取子链&amp;amp;提取二级域名" style="text;html=1;align=center;verticalAlign=middle;resizable=0;points=[];autosize=1;strokeColor=none;fillColor=none;" vertex="1" parent="UEzPUAAOIrF-is8g5C7q-107">
          <mxGeometry x="-13" y="565" width="150" height="30" as="geometry" />
        </mxCell>
        <mxCell id="tLcVWLizjV6hdJb5gyHF-60" value="提取二维码或者下载链接" style="text;html=1;align=center;verticalAlign=middle;resizable=0;points=[];autosize=1;strokeColor=none;fillColor=none;" vertex="1" parent="UEzPUAAOIrF-is8g5C7q-107">
          <mxGeometry x="124" y="565" width="160" height="30" as="geometry" />
        </mxCell>
        <mxCell id="tLcVWLizjV6hdJb5gyHF-12" value="" style="sketch=0;outlineConnect=0;fontColor=#232F3E;gradientColor=none;fillColor=#4D27AA;strokeColor=none;dashed=0;verticalLabelPosition=bottom;verticalAlign=top;align=center;html=1;fontSize=12;fontStyle=0;aspect=fixed;pointerEvents=1;shape=mxgraph.aws4.download_distribution;" vertex="1" parent="UEzPUAAOIrF-is8g5C7q-107">
          <mxGeometry x="165" y="487" width="78" height="78" as="geometry" />
        </mxCell>
        <mxCell id="tLcVWLizjV6hdJb5gyHF-61" value="&lt;span style=&quot;color: rgb(0, 0, 0); font-family: Helvetica; font-size: 12px; font-style: normal; font-variant-ligatures: normal; font-variant-caps: normal; font-weight: 400; letter-spacing: normal; orphans: 2; text-align: center; text-indent: 0px; text-transform: none; widows: 2; word-spacing: 0px; -webkit-text-stroke-width: 0px; background-color: rgb(248, 249, 250); text-decoration-thickness: initial; text-decoration-style: initial; text-decoration-color: initial; float: none; display: inline !important;&quot;&gt;单独处理&lt;/span&gt;" style="text;whiteSpace=wrap;html=1;" vertex="1" parent="UEzPUAAOIrF-is8g5C7q-107">
          <mxGeometry x="440" y="577.13" width="66" height="35" as="geometry" />
        </mxCell>
        <mxCell id="tLcVWLizjV6hdJb5gyHF-89" value="" style="shape=image;verticalLabelPosition=bottom;labelBackgroundColor=default;verticalAlign=top;aspect=fixed;imageAspect=0;image=data:image/png,iVBORw0KGgoAAAANSUhEUgAAAhgAAAGzCAYAAABtt26gAAAgAElEQVR4nOzdfUzUd77//eco4KDcDEi7w1Y3HdfahWqP+NvdOLTdxCE2Wzz2FyH1SiHdrMVz8qtwel272ObayjEnLbTJVtpk67T57Xbq/tpAszXQ5LiOuzWOu8cs48npirn0QE/1dGxLy3QrMKDCKHfXHwOKMMONfOfG8nokJALfm/f3Cziv+dx9TaOjo6OIiIiIGGhRvAsQERGRbx4FDBERETGcAoaIiIgYTgFDREREDKeAISIiIoZTwBARERHDKWCIiIiI4RQwRERExHAKGCIiImI4BQwRERExnAKGiIiIGE4BQ0RERAyngCEiIiKGU8AQERERwylgiIiIiOEUMERERMRwChgiIiJiOAUMERERMZwChoiIiBhOAUNEREQMp4AhIiIihkvogPHxxx/HuwQRERG5BQkbMLxeL7/97W/5/e9/H+9SREREZI4SMmCMh4uuri5aWlrwer3xLklERETmIOECxni4GLd8+XLsdnscKxIREYmtrq6uhDrOrUiogDE5XKxZs4bq6uo4ViQiIhJb9fX11NfXzzscdHV18dvf/pbnnnvOoMrmJmEChsLFDf7Tzbie3UmRI59ckwmTyYTJlEu+o5SqlxvxdgTjXaKIiERBfX09H3/8MV1dXfMKGePhYvxY8QgZptHR0dGYn3UShYsxFz3UbC+n7rh/hg2tFL/ipulnBZhjUpiIiMRCuGEC1dXVLF++fNbHmBguxlVXV7NmzRpDa51J3AOGwsWYy17qNhdSczL0qXVTBRVPFOO42wIE8Z/1cPjXDTSeHQ8fVqo/8LFvsyKGiMg3yXxCRqKEC4hzwFC4uKH15Q1seLYVAPvzLbj/2Y5lylYBvC8UU7h3bFbNU4fpeb04zHYiInI7u5WQkUjhAuI4BkPhYoKgh6ZXQuEC6x5qnwkXLgAs2J/aTcX4p2+00h6TAkVEJJbsdjs//elPr38+05iMRAsXEKeAoXAxSQBSH3Hg2JSHbdcWHNP1euTYyFsfs8pERCROZhsyEjFcQBy6SBQu5stP4/Zcyg8C1NIyugetEiIi8s01XXdJooYLiHHAmHyTAMNvQmFh4TduYa5gIEDnhVO0tnrwvN9M06F2QkM9FTBERBaCcCHjpz/9KYcOHUrIcAGQFKsThQsXYPwDze69915DjxdrwY5W3Eeb8Bzx0v65D89JX7xLEhGROBt/4zz+OjreXTJRIoULiGHAWLNmDWvWrNETUiO53E7j3iqqX/UQaRUM28YSiksKMR/dTf3RmFYnIiJxNjlkTJRo4QJiGDDGm3Mm9xWtWbOGrVu3Gnqe24+Pxl0Oyt8ZjxY27DtKKC3YQN5aG7a8PGw5FsxJAH4a/2N3HGsVEZF4Cfdmffny5Qn52hfzQZ7hBqRs3bqVv//7v49lGQkl8P5OskpcoU821tJyZA/2iItbeKkzFVIDaAyGiMjCEe71c9ytrPgZbTGfpjrekjGxKefQoUP8/ve/j3UpCSJAy1HX9c+qn6+eJlwAHT5ORb8oERFJIOHCxcQJDfN9dkk0xGUdDIWMiYIELt74zJw63SIYQbwH9tMc9ZpERCRRRJqK+tOf/nROi3HFWtxW8lTIGGclr8B6/TPXrxsJO29kKID31VJKxpcJB6CNzpmeiyYiIretmda5mOuKn7G0+F/+5V/+JV4nX7p0Kffeey+ff/759Zvx8ccfYzKZEm40bDTlppv44H9/QAdw+f9r5nf/1kFgZAgCnfgutOI54OSf/1cp/++757iMHfvGDjo6AO7hf/4//xfrMuJ8ASIiYrjZLqK1cuVKcnJyOH36NAADAwOcPn2a9evXs3Tp0pjWPFHcn6YKGvgJ4Du4k6LtrvCtF2Osm6pxvrWPghOlrPpJqKNkz4lRah+MTY0iIhIbt7JCpxGPejdSXFswxqklA7Lue5T/+3/9iJWLkrk8EsDXEQDAutbBw6WV1Lz2f/g/e0rIs0DWaAf/+r8/wA+cs/6IqiJb7OYbi4hIVN3q8t+J1pKREC0Y49SSISIiC5kRzxZJlJaMuA3yDCfSwE+v1zvNXiIiIt8MRjy4LNLAz1hLqIABU0PGmjVrvnEPLxMREQlnYjCYz/Lfk0PGxH/HSkJ1kUzU1dWF1+tV94iIiCwoXV1ddHV1GTIG0ev1snz58riMZ0zYgCEiIiK3r4TrIhEREZHbnwKGiIiIGE4BQ0RERAyngCEiIiKGU8AQERERwylgiIiIiOEUMERERMRwChgiIiJiOAUMERERMZwChoiIiBhOAUNEREQMp4AhIiIihlPAEBEREcMpYIiIiIjhFDBERETEcAoYIiIiYjgFDBERETGcAoaIiIgYTgFDREREDKeAISIiIoZTwBARERHDKWCIiIiI4RQwRERExHAKGCIiImK4pKGhoXjXICIiIt8wSZcuXYp3DSIiIvINYxocHByNdxEiIiLyzWIaHR1VwBARERFDaZCniIiIGE4BQ0RERAyngCEiIiKGU8AQERERwylgiIiIiOEUMERERMRwChgiIiJiOAUMERERMZwChoiIiBhOAUNEREQMp4AhIiIihlPAEBEREcMlxbsAERGRb6qhoSEGBwcZHBxkeHiYkZERRkZGADCZTCxatIjFixeTlJREUlISKSkpmEymOFdtDAUMERERgwwODhIMBhkYGODq1atcvXr1eqCYjeTkZMxmM0uWLCE1NZXU1NQoVhtdely7iIjIPIyMjHDlyhX6+/vp7+9ncHDQsGMvXbqUpUuXsmzZMpYsWWLYcWNBAUNEROQWjIyMcOnSJS5dukR/f39Uz5WUlERaWhrp6em3TauGAoaIiMgc9fX1cenSJa5cuRLT8yYlJZGenk5GRkbCt2goYIiIiMzS1atXCQQC9Pb2xrUOs9lMZmYmmZmZca1jOgoYIiIis9DX10dvby8DAwPxLgUIzULJzMzEYrGQkpIS73KmUMAQERGZQXd3Nz09PQwPD8e7lCnS0tLIyspKuLEZChgiIiIRjIyM0N3dTXd3d7xLmVZqairZ2dksW7Ys3qVcp3UwREREwhgdHaWrq4uenp54lzKjgYEBurq6ABImZGipcBERkTBul3AxLhgM0tXVFfUps7OlgCEiIjJJIBBI+G6RcILBID09PVy7di3epShgiIiITHT58uXbquVisitXrhAIBIj3EEuNwRARERkzODhIIBAwdLlvCI3n8Pv9+P1+Ll26xPDwMKmpqSxfvpw77rgDi8Vi6PkCgQApKSmGH3cuFDBERETG9PX1GTqGYWhoiHPnzvHxxx9z/vz5sNssX76c7373u6xZs4Zvfetbhp27t7cXs9mM2Ww27JhzoWmqIiIihGZidHZ2MjQ0ZMjxgsEg//7v/86HH344q+2//e1v88Mf/pDvfve7hpwfwGKxcOeddxp2vLnQGAwRERFCrRdGhYuBgQFaWlpmHS4AvvzyS/7t3/6Nc+fOGVIDEJMHsUWigCEiIgtef38/ly5dMux47e3ttLa2znm/7u5uTp8+zeXLlw2pY3h42NDrmgsFDBERWfCuXLnCyMiIIcfq7e3lo48+uuX9P/vsM9ra2gypBULXFgwGDTvebClgiIjIgjY0NGToY9c7Ojro7Oyc1zHOnTtn2DTToaGhuHSTKGCIiMiC1t/fb+jCVH6/35Bj/O1vfzOgmhAFDLmu9eUNmEwmTKYtuMLPbFoYTtaN3YcIH/cUUvRkHY0n5/8HfVsJtNP4cydhe3j9HupfaGaB3RGRW2b049eNWgHUyLU4+vv7Y95NooCRiIIeml5pBasVK26c7899oNCCcd6L50AN5fYCil7yEvtexnhopS4vn/JXA1Ov199MeW4Ru88sjDshMl8jIyOGBwyjxnIYdZxxChhC8ISbOj8U7KqiHGh9pQnPQn+9eKyBztFRRid/XOrkVGMldvx4nqvGeTrehcZCkIjNE0PBBRKyRIxx7do1w5/bkZWVZchxkpOTDTnOOAWMBS+A+916wErp5mqKf2EFfx2NRwLxLiwxpVkpeHwftb+wAl72HVFrj4jMXjQeCmbEwlbZ2dnk5OQYUM0NsX4AmgJGojnfhOsAYK3CsdFM4eYKrIDrN034ZtjVf7KR+l2lFN5zY4zCKnspVa+58U3OJx2NlJpMmLY34rvgZnfxqrHtd1J3fMLb4yE/3nfr2OnIJ9dkwmTKJd+xk7r32wkXebwvhM5bdxLwe3Du2kJ+runGsSPsNz9m8tcVhu7BUISE7vfgnHhv7imkdJcTT5iWAP+7pZhMJkrf9UOgneYXdl7fL3fdFqpe8+CfshaPlzqTCZOpDi/gP+6k6tHxe7aKwifraD47zZXPsr5QbYXUAFBDocmEyVRKY8fYvV9ZTjPAwfKxc4fqEZHwjH7mCMBdd91Fdnb2vI5xzz33GN6Cce3aNcO7XaajgJFgfCeacQMFPy/GDpg3lbJ7PXDESXPE5v8g3hcKybWXs/uNZvw5DhybHTg22vCdbMb59BZWPVKHN9y6LYHD1Dy+hfpzVhybHZgvtGHOsoa+d8FN1UO5FJbV4DoexLbZgWNTFj3HXdSU5JPniHBMoPNoHUUFRVS90Y5l3Xgtof02PO02OGQEaTvTAkDxCuuU7/oOVVGYW0TVG814sYfujdlH8xtVFOUWUnUoQnRrd7HzB/mU7j1MYKUDx6Y8OOvG+XQRBQ9HGGBJJ56XiihwVOFst5C/2YF9tQ/vgRpK122gKkxL1JzqS7Ph2GzHBoAN+2YHjs02LElgtoRqtAJY80LH2WwhPk8hELk9GLVy50R33HEH995777z2z8vLM7CikJGRkahcbyQKGAmlleZfuYECyjcXjH2tAMdPCoBW9r3nCdu/HjxeS8leL6yv5nDnKJ94j3Hsg2Mc837CqK+JyvXAyRr2Hwnzdv1oI40r3+ST9haOfXCMts9bqF4P4MO1awvOk2Db8SZtPZ/Q8sExjnna6Ow5xb6tVvzHayjZFX62gnNvDQM7DtM5OLaf9xN6TtRiB3yv1eAyaqzEZR/eA7upeckPG2upecx28/dP11P+qBMvdva4Oxk9F7rOY2c66fTUUmz14ny0KuxMneYXajhsf5O2nk7aPGPX7mugzAr+41W4DoWLSU5qnhugYsK5Ws710PK8HfDhfM51czCZY33Wrfs49kE9FQBUUP/BMY59sI9iKxT80zGOvV1DIcBDNTR8cIxjH1RSgIhEMjw8HJXj5ufn31LIMJvNFBQUsHz58ihUZfzA0ekoYCSQ4PEm9p0GHqmkZP2NrxdsraQY8L/UiPvi1P1aP/SSv9ZKxd4aiie/gb+7hOpdDgAaPwr3Tt1K7c8rsI0/VzdpvBYXNUeA9bU0vF5B3sQn/loKqG5soNoK/ndqaQgXFtbvw/liMdYJz+u1PFhN7TMArZw6N8dJlNeb/Cd9pK+i8EkngR1v0nZkD/a0iTsFcP96N16g5O0Gah+5+eZYN+3B9UoJ4KbmrXDhrQLnK5Ou/e4yap8P3c+ms+FbPgp+6Zx0Lgv2Z2qpBjh9Ct/1S59vfSIyX9F6wbVYLDzwwANzaonIyMjgoYceYt26dVGpCTBs8a7ZUMBIGEFajrrwAyVPbOGm9+GrS6nYAeDCFaY53/5M6B3vm9ssU74HkJoW/ushDvLunvrV1uN1+AHHrjLs4drY0xyUPxtqWWk4PrWzwLrdEeads5msse6XoMGtdO0Haqh6vpH2iV02wVN43gCopGKrLex+1k3llAH+A17aJ3/ziWIKw4yxSrWEriH8eA8rpZvCtBmYswhdevDGtc+3PhFJaFlZWTz44IM89NBD0z6GPSUlhe9973sUFRVx//33R7WmWAaMpJk3kZi46KbxJT9QQfnmyc0QFhxbK+CAC/evmmndUT1ts3cwECDgb6etvQ3PUTeeo83TbJ1P7pRhC358Y8voO9aFf+EDsK0uBFppPddJgAImxpjCu3PD7pN7dyEwXT0RPNZA53tlTCk1GMB3uon6n+3E+Wo5jotmWt8uCW3X4RvrjnBTu72I+rAHHggNnvWfor0DClZM+NY9uVPPB1hX5k9TaCG2cDuRi+0h4OCEL823PhGZN5PJFNXjZ2Rk8MMf/pA1a9bw5Zdf4vf76e7uZmRkhLS0NJYvX05ubi7f+c53olrHuGhf70QKGAnCd8iFCwAXpXe4Im94eh9Nxysp2HRzs0LgbDPOV/bhOuCdNNvEim21lcgLJ9w6yx1jIeJimAWfYsVswbaxgv3vptJpK6f5nUpcu0rYsxG46McDgA/v0Znm4MRBotcnsgAsWhSbhnyLxYLFYiE/f7o3KNEXq+sFBYwE4cNz0A1YyduUT26kn0pnG56zfurecbN7U8n1FoPgyTqK7TV4sZK3qYLqRwrYsDYPmy2fvLutBN8vJbfsFloNZhD4euxhPndbma4TJibudlD6GDQf9HPK54eNVjCbKQBarbWc6tyTeIMdE70+kQUgKWlhvQwuXrw4ZudaWHc2UZ1uxnkEsFbh8uzBHnG7ejYU7Kb1gIum50qoWA3QivOpULgoa2yh4fGpXRq+OY93sGJbZ4WDfjxnfOzZGL6bxPdRaGpoQW5WYk6FvDuPQqA1UbsXEr0+kQVgIQWM5OTkmAYMDfKMuyCe9/bRyo21LyJaX0LlI8DE55N0tNNyGqCQLQ+FCwI+PO/OvfWi4MHQAl+e1xvxhuv/uOyh4ZVWwEqpPQHee3d4aDoIYGXD+CAISyGOHQDNNBwJ3wURPFnHhtx8ih6txxu76eEhiV6fyAKQkpIS7xJiJiUlJaZjMBQw4i3YgueAn5vXvojEhuOxYmDC80lW2NhgBWim6VD7zWMhLrbS+HQ5O4/MvSzzpgpqHwFO11C+y0X7xCUfAq3Ul5VT7wfrE04qNs79+MYJEjjdyO6fVIeGjm7cTfH1eiwU7wqtveH+x3Kq3r15FdHg+WZ2/6yGVn87A5sc2GP+Rma+9Z3CdyHCoQ+2zbjyq4iE3tXHclxCPMU6TC2Mu5rAAkcaqfMD68txrJ9xc2xbK0KLLF1/PomdsldCsyuad+WTek8hRQ8XUWRfhemODZQfTGXPi2OzTs51zmGop42K1w9TuRF8B3aSn7WKwoeLKHLkk5u1gd2H/Fg31dL8eknYmRaGi7QOhimVrIJy6o/7YXUFTe/ePMPG/P09NLxXgQ0vzrJ8sibcn9R7SscWEmui4WfxaYW5tfps2B4DaKZ8cyFFD++kcXyhsOuBs46SdUUUPVwXvgVKRIDQi+6SJUuidvy+vj46Ojpm/RFNZnNsO7MXTudTQvLjfjc0Y6T46ZLZDfLLKabsGXC9HHo+yZ5tFdgeb6DVWkjtq06aDnnxnAfbxhIqf7Wf6ieKsZk9BJ+rp/UdNy2vlFAy2+fn3F3M/hOdlLyzj8Z33Bw+6sGPlbytlezeUUnFtrz4D+605uFYV0jB42XsftyBNczfj+2xN2n7vAzXi04ajjbjOQpgw/5YJeVP1VC5KSYRKaK512el7JeHORXcTcMhL57zXgp8+ylbbQbsVB/Zj++pelwnPfjPQlvHHuyrY39dIreL1NRUQx/Z3tfXx9mzZ/niiy/47LPP5rRvZmYmK1euZMWKFdx3332G1ZSUlBTVIBWOaTSWq26IiIgkmP7+/nm3HswnVEQyHjbuu+8+VqyY3yjw9PR0cnPDr08ULQoYIiKyoI2OjvLFF1/Q398/533Hg4XXG93nFmdmZvLjH//4loOG1WolIyPD4Kqmp4AhIiILXk9PD19//fWc9mlpaYl6sJgsMzOT7du3zyksmM1m7rrrrphOUQUFDBEREQYHB/nyyy+5evXqjNv29fXxxz/+0bCukLnKzMwkPz+fwsLCWW2fk5NDdnZ2lKuaSoM8RURkwUtOTiY9PX3GgNHR0cHvfve7GFUVXm9v7/WWk5lChtlsJj09PRZlTaFpqiIiIoQeTLZ06dKI3+/r6+MPf/hDDCuantfrpaWlZdptMjIySE5OjlFFN1PAEBERITSVMyMjI+Jql16vl97e3hhXNb22traI30tPT4/5wM6JFDBERETGZGRkYLGEX+Hn888/j3E1M+vt7eU///M/p3w9JSWFzMzMuK5SqoAhIiIygcViYdmyZVO+nmitF+Mm12UymbBYLNN298SCAoaIiMgEycnJZGVlxXxpbaNkZWVFbIWJJQUMERGRSZYuXUp2dvZt97RVi8VCVlZWvMsAFDBERETCSktLY/ny5bdNyMjMzCQ7OzvmC2pFonUwREREIkhPT8dkMtHd3R3vUqaVlZWVUOECFDBERESmlZaWxqJFi7BYLAQCgXiXM8W6devIycmJOL02XrRUuIiIyCx89dVX/OlPf8Lj8cS7FCA03uLxxx9n/fr18S4lLAUMERGROfj00095/fXX49qa4XA42LZtW0KPD1HAEBERmaOvvvqKP//5z3z44YcxXR/DYrFQXl7O/fffH7Nz3ioFDBERkVvk9/s5c+YMH374IRcuXIjaeTZt2sQDDzzAypUro3YOoylgiIiIzNPIyAhffPEFbrebrq4uPv3003kf02Kx8P3vf59HH32UJUuWGFBlbClgiIiIGGhkZIQvv/ySjz76iPPnz9PT00NPT0/ErpTMzEwAsrOzsdls3HvvveTn5yf0+IrZUMAQERGJgeHhYS5evMjo6Cjd3d1kZ2eTk5PDokWL4vpQsmhRwBARERHDffMik4iIiMSdAoaIiIgYTgFDREREDKeAISIiIoZTwBARERHDKWCIiIiI4RQwRERExHAKGCIiImI4BQwRERExnAKGiIiIGE4BQ0RERAyngCEiIiKGU8AQERERwylgiIiIiOEUMERERMRwChgiIiJiOAUMERERMZwChoiIiBhOAUNEREQMp4AhIiIihlPAEBEREcMpYIiIiIjhFDBERETEcAoYIiIiYjgFDBERETGcAoaIiIgYTgFDREREDKeAISIiIoZTwBARERHDKWCIiIiI4ZLiXYCIiMg31eDgIENDQwwODjI8PMzw8DCjo6MAmEwmTCYTixcvJikpieTkZFJSUjCZTHGu2hgKGCIiIgYZHBxkYGCAYDBIMBjk2rVrjIyMzHr/5ORklixZgtlsJjU1ldTU1ChWG12m0fEoJSIiInM2MjLClStX6O/vp7+/n8HBQcOOnZqayrJly1i2bBlLliwx7LixoIAhIiJyC4aHh7l06RKXL1+mv78/qudKSkoiLS2N9PT026ZVQwFDRERkjvr6+ujr64t6sJgsKSmJ9PR0MjIyEr5FQwFDRERkloLBIL29vfT29sa1jiVLlmCxWMjMzIxrHdNRwBAREZmFvr4+AoEAwWAw3qUAoVkomZmZWCwWUlJS4l3OFAoYIiIiM+ju7qa7u3tOM0JiZdmyZWRnZyfc2AwFDBERkQhGRkauh4tElpqaSnZ2NsuWLYt3KddpHQwREZEwRkdH6erqoqenJ96lzGhgYICLFy8CJEzI0FLhIiIiYdwu4WLc1atX6erqivnMlkgUMERERCbp6elJ+G6RcILBID09PVy7di3epShgiIiITHT58mUCgUC8y7hlV65coaenh3gPsdQYDBERkTGDg4MEAgFDl/uG0GBRv9/PV199RW9vLyMjI6SmprJ8+XLuvPNOLBaLoefr7e29vlZGvChgiIiIjOnt7TV0DMPQ0BAff/wx586d4/z582G3yc7O5rvf/S5r1qzBarUadu7e3l7MZjNms9mwY86FpqmKiIgQmonR2dnJ0NCQIccLBoOcPHmSv/71r7Pa/tvf/jY/+MEPWL16tSHnB7BYLNx5552GHW8uNAZDRESE0EqdRoWLgYEB/vKXv8w6XAB8+eWXnDhxgnPnzhlSA8ClS5e4cuWKYcebCwUMERFZ8Pr7+7l06ZJhx2tvb+f06dNz3q+7u5vTp08bVsvw8DCXL1825FhzpYAhIiIL3pUrVwxbBjwQCPDRRx/d8v6fffYZ7e3thtQCoWuLx/NTFDBERGRBGxoaMrQb4YsvvqCzs3Nexzh37pxh00yHhobisviWAoaIiCxo/f39hi5M5ff7DTnG3/72NwOqCenv74/5uhgKGAmq9eUNmEwmTKYtuMLPbLrO/25paNsXvLM/QUcjpSYTJlMdc9gr4QQ7vDS+XEWpfdXY/TKRu66I0l31NJ4M/0d+S/drRn4at5swmUpp7JjvoTzUv9DM/P+LEpHZGBgYMPR4Rq0AauRaHP39/THvJlHASERBD02vtILVihU3zvdb411R4rncTuPPi7CtLKT8WSfNF8w4NjtwbHZgC3pofmM35fZcVm130hqf8U23xt9MeW4Ru8/Evr9UZCEaGRkxPGAY1VJg9KPhr169aujxZqKAkYCCJ9zU+aFgVxXlQOsrTXj0enPDZS91jzoof9UDm6ppaO1htLONYx8c49gHx2g5N0pPawOVG8F3sIriXY34ol6UlbL3RhkdbaJsxTwOMxREP2qR2Ll27Zrhz+0wavXM5ORkQ44zTi0YC14A97v1gJXSzdUU/8IK/joaj9y+6+IbK4jn+RJqjvuxPtFAywf7KFs/9Y/Zsr6M/e83UWkF/zvlVB2IfsQQkdtPNB4KZsTCVtnZ2eTk5BhQzQ2xfgCaAkaiOd+E6wBgrcKx0Uzh5gqsgOs3TbN7Fx5oxbVrC/m5JkymXPIfrcJ5fKbe/ACtB6rYsi53bAzDFqpe8+Cfbr0ZvwfnrlIK7wmNezDdU0jpLieeSacKHKoKfX97Y8QxBeNjIja8PIuuoPMN1L/sB4qp3VuGbbrF7q0lVL9YQt6mCvLwEzaiBdppfmHn9evIXVfEzpfDXbuXuvExK5dbcZblkzt+r95pZ9oxGJPvVW4+RU/WTRkj4n3BhGllOc0AB8vJjTBGxn/cSdX2QlaNjTlZZS+N+PPyvhDapu7keB3jvxsmVtl3Uvd++7T3pWjsd8JkWkXh9iqcR3zhtw+3z9h1Np8Nt8eE+zl+TY/mj13zKgoj7hYkH5UAACAASURBVCdiLKOfOQKwYsUKli9fPq9j3HPPPYa3YFy7ds3wbpfpKGAkGN+JZtxAwc+LsQPmTaXsXg8ccdI805otZ1zs/MEGdr5xCvIcODam0n7ISZUjl8IXvBGa3k/henIDG550cop8HJvtpJ5143y6iNyH6vCGGb/gO1RFYW4RVW8048UeGvtg9tH8RhVFuYVUHboRhSybS6gGONiEJ+zgRz+e95uBAso3F8x4f1oPOXEDPFbOllmspmvb0USb50327bAzpZ3jjIudP8indO9hAisdODblwVkPrmeLKHjYSfi4c4r9u4qpOg75mx3YgqfAkhvx/MGTddfvlc8cGiPiuDuI50AN5fYCthy4MdfdbAnVYAWw5o2NKbFw4ykCPtxPF5LrqMJ50AsbQ8czX2ge+3lV4b4Qvo7Oo3UUFRRR9UY7lnUOHBtt+E66qCnJZ8PT7ptDw4VGyvPyKd3rwhO0herYZMZ30ElV8SqKn/VMCRnB0/VsGd/nYtZN11m6Lo8tr7ZG+P3rxPNSEQWOKpztFvI3O7Cv9uE9UEPpug1UqeVOosyolTsnysnJYc2aNbe8/x133EFeXp6BFYWMjIxE5XojUcBIKK00/8rNzS+2BTh+UgC0su89z/T98wddHF65h8OdnbR5jnHM+wk9Z96kzArevSXsPhTuP+tmXEds7HF30nnmGMc+aOGTnjbefMIKJ2soeXbSi8/pesofdeLFzh53J6PnWkJjH8500umppdjqxflo1Y2ZL+bCUDcPzTSdCNOGcf4wDQeBRyopWT/T/fHjaw297Ds225n3I4EOujict4+Wr8ful6eNTl8DZVbwH6/CFeF+NZ6p4Fh729h4j072b43U3+qj4fkavNipPdEzdn/Hfi4narHjx/1kPc0XQ1sX/NMxjr1dQyHAQzU0fHCMYx9UMv6b0PpqOVte88LGPRzuHOUTb+h4bZ93cuzFYqwnnWzZ5Qrb0uXcW8PAjsN0Dn5Cy001gO+1GlzXw2sQz6+rafRbKXv7kxs/3wn3xvvy7gnbAxfd7H5kN26/lbJft9EzPh7G+wk9Zxqo3OjH/fNiao6G++11UvPcABUTfpdazvXQ8rwd8OF8zhUh6IkYY3h4OCrHzc/P53vf+96c90tNTaWgoGDeLSCRqAVjgQoeb2Lfaaa82BZsraQY8L/UiPvidEcoof7tWoonvPJa1lbgersaK36cb4TvZil5pYHaRybulEfF6w1UW8H/hpOm69NkA7h/vRsvUPL2pH0A66Y9uF4pAdzUvDUehsw4Hq3CCjS/c3jK+cdbbIofc2Cb7tIA6MR3JvSvPGvWjFvPrALnW9XYJ3Zz3l1G7fMOAJrOhu+UKnm2CsesxnD58R8BcOB48OYdLA9WU/uMlbxNPnwzTEMGIODG9XMvUELDuzf/jEmy4viFi/rHgCM1uI6HeSFfvw/ni8VYJ3QphWoAaOXUufHwF8B/3g8UsuWhST+RsXtj25hFe/uNe9P6Tg1OPxT8czOuf8i7qaXIsraMfa/WUoCf+lcbwv7+FfzSOel3yYL9mdpQy9fpU/g0X1eiKFovuBaLhcLCwjm1RGRmZvLggw+ybt26qNQExs1wmQ0FjIQRpOWoCz9Q8sSWm19sV5dSsQPAhevQNCMxnqmkJMwMBvPmUioAjnhonfKfdTWV28K0BaQ5KP0HADee8Z2Cp/C8AVBJxdbwccC6qZwywH/Ay/XG/43FY908zXhuejH14TnoBkoo3zxzvIAgwbF3zrl3GDBK+4liCsOMocq9O9Rm4B8K947byoZ7Ztt2Ysa8HsBF7Utu2i8Gb/qe45ehlpPqjTMfKfgfHpwAT1VQfHe4Law4HisD/LhOTl1i2LrdwdQOKDNZWaFrCQ7d+JolB6CZ/a+48F64+R7Y/uEYn3iP8ebj4z8vH6eOtAIFlJfYCfdQaPPGYkqtRPj9s1K6KUzXmDmLUGnBCbWJ3F6ysrJ46KGHeOihh6Z9DHtKSgp5eXk4HA7uv//+qNYUy4Ax3RA5iaWLbhpf8gMVlG+e/ItowbG1Ag64cP+qmdYd1WFeLKBknS3sf/BgI/8x4GAj7RcauKlvYdsGbOF3wpZXAjTT+JGPBqzQ4RtrrnZTu72I+rB7DYTepfpP0d4BBSsACnCUFcBpN80nfFSsHntxOu+h8Qiwo5ziWU3ttGLdDByFzq8DMHVUxdzckxu2m8WcPl3rSCG2WffNFFC+twJniQv3c1twPwfWtQ62PFJGcZmD4rU2zLP8C+y8MNZRcLSW0ofD33kuhcKnv7UdPwU3XVvh3eHHieTeXQihYaVjLDie3Ifj/d14XttJ4Ws7YbWdks2llD5WTLE9D8vE35egj/ajAJ24fl6EO8L1hBZNDvP7F/F+5mJ7CDgY/ngiRjGZTFE9fnp6Oj/84Q+59957+fLLL/H7/fT09DA8PExaWhrLly8nNzeXlStXRrWOcdG+3okUMBKE75ALFwAuSu9wRd7w9D6ajldSsClMKkhKnfuJk2DWe1304wHAh/fo3KZ9Fmwup4BW3Ac9+HZUYCM0YNMDVG5zzDIqZJG7GjgK7f4e5h0wYsC67U1OnSnG+co+XAe8+M56cJ314HoZsOZR9lwDzn8qmPFK/P7Qnee8d1IrkPHM36/mWGsBzufrcb7vpv28l+bzXprf2A3YKH5mH/tfLAnN4LnoH+v28NN+3I9xj2cSiY1Fi2LTkJ+ZmUlmZmZUBm/ORayuF9RFkiDGuwqs5G1yXF+RcsrHWivgp+4dd/ipgkMzrUZnnRoph2DGvZLGwozZHGo5sdZyanSU0Wk/Ji04tb6EykeY0E3SiuftVqCaks2zDQoWNjxUAoDnqHd2S2l3NLLTXkrVy258cVrByrK2hD1vtfDJ4ACftB6m4ZeVFK+1gr+dxqc3UD6LNTrMaaE2K+uLp2a476OMvlc2/wGwVgeVrx+mrXOAnvYWmt6qpmKjDfDhfrmUwr1jY2zSLITaRspo6pzpd2KUPbPoDhKJpaSkhfU+e/HixTE7lwJGIjjdjPMIYK3C5Tl2fUXKKR/v7A69wB9wTRh4eUPzuQgvucE2Th0EcJA3uSvi/bYIL9RB2lpDTeeO1WPN63fnhWY4jHV/zI0Nx2PFgJvG4z447aHhNFh/UUxhhC6acKw/KKYY4GADh2fxTt53pAHXyWacje0E5nCeqEgyY1tfTNkz+zl8ppNP3gqFJfeRmcOSbXUhMN79EUtmLN+zU7JjH296P6HHs4cCwP+SN9RdZsnFth7AQ3uEKbIiiWwhBYzk5OSYXq8CRtwF8by3j1ZurH0R0XgrQKTnk/ymCU+YdSsCR5tpAHhsC4VT3tq6aAo3ffCih+Z3AErYYh/byVKIYwdAMw1Hwr/rDp6sY0NuPkWP1uOdNDjPtrmcEkKtD57/cNOKlapHHRHGjUSwupya5wsANzXPN+KbbgDghUZq9oZahiqfrwg7biWqPnRS9HAhq55sDtviZMvbMOtDWeyO0EDdiMEqiPeFDeSuK2LLq/N4iJvfze6Hi8i314edHmq5J3/SbJ+x8TX42d8cYRp1RyOlplUUPlxF83wfBCdisJSUlHiXEDOxvlYFjHgLtuA54Gd2C02NtwJEeD6Jv57yXS7aJ7yaBT6sp/wfnfixU/tsSZimcz/1P6nANXHVxEAr9U9W4PSD/cWaCTNTLBTvCq2d4P7HcqrevXkVyOD5Znb/rIZWfzsDmxzYJwflFcWU7wAO7qfmLQ+s303xnJvMzdh/5qR2Y2gJ8MKHd9N4esqyT/iP17HFXk6jH6xP1FMdca2KKFqbh/2MF9+BSirf8d384jvko/H1/QDY7XlTfy4H226e0plTTOWLdsDNzieqaLxplcsgvvd3U723Ff/ZARybpo2p07PmkZfkof3kbipf8BC4KcAF8B7YTzNgfaqA8Z7kgsdrQmuHvFxO6UuTVhS96KV+VzXN+PCtLsYxn+e0iERBcnJyTMclxFOsA8bCaRtKUIEjjdT5gfXlOGZcaApsWyuowI3LX0fjkd04tt144Sz551rMv9lJflYd9s02Ui/58Jz0AVbK3m5gz/fDtBVs20Ntmoud67Ko2+jAlj6A76gXH2B9ooGGZwpuamEwf38PDe/5KNruwlmWj3OvHYctFa6fK7R6ZsPPwoUlC45tlXDAifckFPwy3NTJWUizs+fIKcw/KWb3oXrKC+opt+bhWJcL3KgfrDh+5uLNV4pnscZGFJgdVL1ViafYSeNPVtH47NQarVv34fyHCXdhhY0NVmj211Gyzkt+roPaf92D3Wym4BcNNJ0rovSAk/J1Tmo2OrClw4DPg/c8gI2K9xqonsXvUWQ2yl/cT3NrFe69RWTttYV+l4DOMx7a/cDGSlzPFt8YmLqiBNf7tfi31eB+rojcX41d51AnbcdDXTrWTbU0/7L4NhiWKwtNSkoKS5YsMfyJquP6+vro6+ub9fYrVkQvhZvNse0nVsCIKz/ud0MzRoqfLpndi21OMWXPgOvl0PNJ9myruDELJK+ChlY7G56rwXnAgw8b9h217P55JSVrI/zXnpRPxVut2NfVUPNrF56TYNtYQe2z1VRuywv7gmB77E3aPi/D9aKThqPNeI4C2LA/Vkn5UzVUboo8xDC0dLiT+lkuDR75QAVU/6uP8pPNNLzdhPtEC56joTkM1rUOKh4po+QfSyleHd+XNOsj+3GfK6bhFRfN12u0krepgtp/CneP7VQf2Y/vqXpcJz34z0Jbxx7sqwFslLzVRucTLmrfaMB90BOa1bPaTslT5VTurcQx79GdYF5fyeHWDTT+xoXL7cFzNDSDxbaxhMrnKql5ynHTgl0A5o17OHammOY3nDjfO3zTdVaFvU6RxJGammpowOjr6+Ps2bN88cUXfPbZZ3PaNzMzk5UrV7JixQruu+8+w2pKSkqKecAwjcZy1Q2RoIfdqUXUP/Imn7gr4tOyICIyQX9/Px0d8xsgNB4q2tra6O3tNaSu8bBx3333zbtlIz09ndzcyM9Niga1YEhMBY40Uk+Y1UpFROIkNTWVpUuX0t/fP+d9x4OF1zuPwdUR9Pb20tvby9mzZ8nMzOTHP/7xLQeNZcuWGVzdzNSCIdE3RCjK+t3UbNtC3YVqjp3bhyMt3oWJiIT09PTw9ddfz2mflpaWqASL6WRmZrJ9+3YyMjJmvY/ZbOauu+6K6RoYoIAhMeB9wUTh3vHPrJQ1ttDwuNovRCRxDA4O0tnZSTA484p8fX19/PGPf5zz+AqjZGZmkp+fT2Fh4ay2z8nJITs7O8pVTbUw5uZIXNnWjo21WF1M5VtuXAoXIpJgkpOTSU9Pn3G7jo4OfvOb38QtXECo68Tr9dLS0jLjtmazeVbXFQ1qwRAREQGGhobw+/0Rx2L09fXx3nvvGTaI0wh2u33alow777wTiyU+c7jUgiEiIkJoKmdGRkbEJ456vd6EChcAbW1tEdfZSE9Pn9NYDaMpYIiIiIzJyMiI+I7/888/j3E1M+vt7Q1bV0pKCpmZmXFdpVQBQ0REZAKLxRJ2WmeitV6Mm1yXyWTCYrGwdOnSOFUUooAhIiIyQXJyMllZWTFf+dIoWVlZcRt3MZEChoiIyCRLly4lOzv7tnvaqsViicuU1HAUMERERMJIS0tj+fLlt03IGA8XifJ0WC0VLiIiEkF6ejomk4nu7u54lzKtrKwssrOzY75a53QUMERERKaRlpbGokWLsFgsBAKBeJczxbp168jJyYk4vTZetNCWiIjILHz11Vf86U9/wuPxxLsUINQlUlZWxt/93d/Fu5SwFDBERETm4NNPP+X111+Pa2uGw+Fg27ZtCT0+RAFDRERkjr766iv+/Oc/8+GHH8Z0fQybzUZxcTH3339/zM55qxQwREREbpHf7+fMmTN8+OGHXLhwISrnyMzMZMOGDTzwwAOsXLkyKueIBgUMERGReRoZGeGLL77A7XbT1dXFp59+Ou9jWiwWvv/97/Poo4+yZMkSA6qMLQUMERERA42MjNDZ2Ul7ezvnz5+np6eHnp6eiF0pmZmZAGRnZ2Oz2bj33nvJz89P6PEVs6GAISIiEgMjIyN8/fXXjI6O0t3dTXZ2Njk5OSxatChhFscykgKGiIiIGO6bF5lEREQk7hQwRERExHAKGCIiImI4BQwRERExnAKGiIiIGE4BQ0RERAyngCEiIiKGU8AQERERwylgiIiIiOEUMERERMRwChgiIiJiOAUMERERMZwChoiIiBhOAUNEREQMp4AhIiIihlPAEBEREcMpYIiIiIjhFDBERETEcAoYIiIiYjgFDBERETGcAoaIiIgYTgFDREREDKeAISIiIoZTwBARERHDKWCIiIiI4RQwRERExHAKGCIiImI4BQwRERExnAKGiIiIGE4BQ0RERAyXFO8CREREvqkGBwcZHBxkaGiI4eFhhoeHGR0dZXR0FJPJxKJFi1i8eDFJSUkkJyeTnJzMokXfjPf+ChgiIiIGGRwcZGBggGAwSDAY5OrVq4yOjs56/6SkJMxm8/WPpUuXRrHa6DKNzuXKRURE5CYjIyNcuXKFK1euMDAwwODgoGHHTk1NZdmyZSxduhSz2WzYcWNBAUNEROQWDA8Pc+nSJS5fvkx/f39Uz7V48WLS09NJT08nNTU1qucyigKGiIjIHPX19dHX1xf1YDHZ4sWLycjIICMjgyVLlsT03HOlgCEiIjJLwWCQ3t5eent741rHkiVLsFgsZGZmxrWO6ShgiIiIzEJfXx+BQIBgMBjvUq6zWCxYLBZSUlLiXcoUChgiIiIz6O7upru7m5GRkXiXMsWyZcvIzs5OuLEZChgiIiIRDA8P09PTQ3d3d7xLmZbZbCY7O5u0tLR4l3LdN2M1DxEREYONjo5eb7lIdMFgkK6uLq5cuRLvUq5TwBAREQmjq6uLnp6eeJcxa1evXqWrqyvmM1siUcAQERGZ5HboFgknGAzS09PDtWvX4l2KAoaIiMhEly9fJhAIxLuMW3blyhV6enrmtER5NOhZJCIiImMGBwcJBAKGLvcNocGifr+fr776ir6+PoaHh0lNTWX58uV861vfwmKxGHq+3t7e62tlxIsChoiIyJje3l5DxzAMDQ3xX//1X5w7d47//u//DrtNdnY2q1atYs2aNeTm5hp27t7e3usPTYsHTVMVEREB+vv78fv9DA0NGXK8YDDIyZMn+etf/zqr7XNzc/nhD3/I6tWrDTk/hBbiuvPOOw073lxoDIaIiAhw6dIlw8JFf38/f/nLX2YdLgA6Ozs5ceIE586dM6QGCK0+Gq+pqwoYIiKy4PX393Pp0iXDjtfe3s7p06fnvF93dzetra2G1TIyMsLly5cNOdZcKWCIiMiCd+XKFcOWAQ8EAnz00Ue3vP/nn39Oe3u7IbVA6Nri8fwUBQwREVnQhoaGDO1G+OKLL/D7/fM6xrlz5wwLPENDQ3FZfEsBQ0REFrT+/n5DF6aab7gYP8bXX39tQDUhV65cifm6GAoYCar15Q2YTCZMpi24zk+/rf/d0tC2L3hvfLGjkVKTCZOpDm+YbUvfvbU/gGCHl8aXqyi1rxqrz0TuuiJKd9XTeHL+f1QiIrE2MDBg6PGMWgHUyLU4BgYGYt5NooCRiIIeml5pBasVK26c77fGuyK43E7jz4uwrSyk/FknzRfMODY7cGx2YAt6aH5jN+X2XFZtd9Ian/FEIiJzNjIyYnjAMKqlwOhHwytgCMETbur8ULCrinKg9ZUmPAb9Xlgfb2J0dJSmx62z3+myl7pHHZS/6oFN1TS09jDa2caxD45x7INjtJwbpae1gcqN4DtYRfGuRnzGlCsiElXXrl0z/LkdRq2emZycbMhxxl29etXQ481EASPhBHC/Ww9YKd1cTfEvrOCvo/FIvNbFD+J5voSa436sTzTQ8sE+ytZP/eOxrC9j//tNVFrB/045VQcUMUQk8UXjoWDf+ta35n2M7OxscnJyDKjmhlg/AE0BI9Gcb8J1ALBW4dhopnBzBVbA9ZsmQ1oF5jwG43wD9S/7gWJq95Zhm25xeWsJ1S+WkLepgjz8TIlEfi+NL+ykaF1uaPxGbj5FT9bRfDZMeBofQ7K9ET8B2t+vY+f4uI/cfLbscuIJcwneF0LjQupOAn4Pzl1byM8NfW2VfSd177dPretW6sNL3fgYl8utOMvyyTWZyF23hap3bkwv8x93UrW9kFUTxqvsfKERr4ariCQEo585AnDXXXexfPnyeR1jzZo1hrdgXLt2zfBul+koYCQY34lm3EDBz4uxA+ZNpexeDxxx0jz3NVvmrfWQEzfAY+VsmcXqtbYdTbR53mTfDjsT2zl8h6oozC2kfK8LT9AWGr+R04PnQA2l6/IoeslL2F6goTZcT24gv6SGw5dD++XRjvuNKooKinBGuCedR+soKiii6o12LOscODba8J10UVOSz4an3VNCxi3Xxyn27yqm6jjkb3ZgC54CSy4QxPtCIbmOKpwHfZg33Riv4tpbTmHBFly3Pk1eRAxi1MqdE+Xk5HDvvffe8v533nkn3/ve9wysKGRkZCQq1xuJAkZCaaX5V26ggPLNBWNfK8DxkwKglX3veSK8yEWLH19raICpY7OdOYzauNl5F1WPOvFio+KtNnrOtYTGb5zppOc/9lFs9eN5roSKg2He1r9fR80RO2+e6aHzTGjMR9vnn9DwhBX8Hqp+PTUsADj31jCw4zCdg5/Q8sExjnk/oedELXbA91oNronBZD710UzjmQqOtbeNjUfpZP9WC5xvoHavFzbW0tLTSZtnfLxKDy3P28HvZucvmyO3pohITAwPD0fluHl5ebcUElJTUykoKJh3C0gkasFYoILHm9h3GnikkpL1N75esLWSYsD/UiPui7GsqBPfmdC/8qxZt3iMIJ63akKtMs83sH9H3k0tG5bvV9P0djVW/DS+2EC4+TIVrzupWDthryQbZXtrcQC83xq+62j9PpwvFmOd0KVjebCa2mcAWjl1bjwszL++kmercEwelnLRH2r52ezAftP3LNifqaXamoejw0d77N5MiEgY0XrBtVgsPPDAA+Tn5896n8zMTB588EHWrl0blZrAuBkus6GAkTCCtBx14QdKntiCbeK3VpdSsQPAhetQLAdPBgmOvdPPveNWR0W34nnJDziofNxOuIcGmzeXh7qBTjfgmdLlUUaxPcy507JCLSp+wrbqWLc7KJjyVTNZWaF2mOD1F/b51mdlwz1h2nbM5tD5f1NL3ZF2AhOLNDvY19nGsQ+qsU83pkVEbmsWi4UHH3yQH/3oR1itkduAU1JSyM/Px+FwcP/990e1JgWMheiim8aX/EAF5Zsn/yJacGytAMD9q+aw76Kjw4p1c+hfnV/fYmN+h4/QkEcH+RHHcNjIswO04vt88nnyyQ33d2nNZbr3BYV354b9eu7dhQbXV4gtXH3ry6nZYQO/m5rifLJSc8l37GT3gWZaL8T+mQAiEp7JZIrq8dPT0/nBD37A1q1b2bJlC//jf/wPbDYb3/nOd8jPz+dHP/oR27Zt45FHHmHVqlVRrQWif70T6f1TgvAdcuECwEXpHa7IG57eR9PxSgo2hXuvbbQsclcDR6Hd3wMYM7d7KgtZY3mg83IivvjeSn1WSt46RdtWJ/W/dOE66aP9uIv24y7qAevaMmoOOKn8frTuqYjMxqJFsXmfnZGRQUZGRlQGb85FrK4X1IKRIHx4DroBK3ljsw3Cfqy1An7q3gk/sNF4FjY8VAKA56iXWc2s7Ghkp72Uqpfd+GadFQL0dIb+ZctJxBfcW63PQt62Pbzp/YTRS59wyt3AvqeKybOC/2wjVT8on3EZeBGJrqSkhfU+e/HixTE7lwJGIjjdjPMIYK3CNTbbIOzHO7tD/foHXDTF6IXJ+oNiigEONnB4Fuf0HWnAdbIZZ2M7ATOwwsYGK4CHtoj7+2j3AhSQe0csWmYmiFV9aTYKHimj+vXDtH3+CW8+BuDG/R9aEEMknhZSwEhOTo7p9SpgxF0Qz3v7aOXG2hcRrS+h8hEgls8nWV1OzfMFgJua5xvxTTfr4UIjNXtDLTGVz1eMDbIswL7DCnhwvht+LYng0YbQ7BlrKYXrw2wQVdGpr/W1Iorsq9j5fpi2piQb+evmUbKIGCYlJSXeJcRMrK9VASPegi14Dvi5ee2LSGw4HisGjH0+yfTM2H/mpHZjaAnwwod303h68otmEP/xOrbYy2n0g/WJeqq3Wq7v73iylmKgdW85VQduXkkz8GE9pT+px4+Vsl9VTB+woiI69eWttdN20odrVyWN5yf9oC40sv91ADuFebe8uoiIGCA5OTmm4xLiKdYBY+G0DSWowJFG6vzA+nIcs3h3bNtaQQVuXP46Go/sxrEtBmMW0uzsOXIK80+K2X2onvKCesqteTjW5QID+I56x9aisOL4mYs3XymeNM22gv3/2kr5o05cT+bjetGOw5YKnW14zvpD+73YjOuxOL3YRqE+86YqXP/kYctrjZTf00j1Wgf5ucAlH56TPsBK8StOKmPeYiMiE6WkpGA2m+nv74/K8fv6+ujr65v19itWrIhKHQBmc2y7oBUw4sqP+93QjJHip0vCrNsQRk4xZc+A6+XQ80n2bKsgNao1jrEUUP2vPspPNtPwdhPuEy14joYmeFrXOqh4pIySfyyleHX4wGPbup+WzhJcrzTSeOQwnqN+sOZR/NRuKnZVULI2voM7ja/PSvGv3HzySAP1B5rxnPDgOQtY83DsqKXy55Vxv2YRCTE6YPT19XH27Fm++OILPvvsszntm5mZycqVK1mxYgX33XefYTUlJSXFPGCYRmO56oaIiEiC6e/vp6OjY17HGA8VbW1t9Pb2GlLXeNi477775t2ykZGRMe1iX9GggCEiIgva6OgoX375JVeuXJnzvuPBwuv1RqGyGzIzM/nxj398y0HDarWSkZFhcFXTqNNbDgAAFi5JREFUU8AQEZEFLxAI8Le//W1O+7S0tEQ9WEyWmZnJ9u3b5xQWzGYzd911V0zXwAAFDBEREQYHB+ns7CQYnHl6Xl9fH3/84x/nPL7CKJmZmeTn51NYWDjzxoQeH5+dnR3lqqbSIE8REVnwkpOTSU9PnzFgdHR08Lvf/S5GVYXX29t7veVkppBhNptJT0+PRVlTLIzJvyIiIjNIT09n6dKlEb/f19fHH/7whxhWND2v10tLS8u022RkZJCcnByjim6mgCEiIkJoKmdmZmbEJ456vV7DZogYpa2tLeI6G+np6WRmZsa4ohsUMERERMakp6djsYRfo+bzzz+PcTUz6+3tDVtXSkrKtGEpFhQwREREJrBYLKSlpU35eqK1XoybXJfJZMJisUzb3RMLChgiIiITJCcnY7FYYr7ypVGysrIitsLEkgKGiIjIJEuXLiU7O/u2e9qqxWKJy5TUcBQwREREwkhLS2P58uW3TcgYDxeJ8nRYrYMhIiISQXp6OiaTie7u7niXMq2srCyys7NjvlrndBQwREREppGWlsbixYuxWCwEAoF4lzPFunXryMnJieuMkXC0VLiIiMgsfPX/t3f3sVHV+R7H31NaOtSWmRbQaZSNw9rFFslSQjZM1WyYBrPUQEKJJrcVE2+5m0jrJtpqcpdZ/9ht3USpJquDiWslWdIaJdRkiUNWw8DGu50mspZE0hpUijxsB5DOtNB2oO30/jEtFpjp45kH5fNKGkh7zu98z4RwPv2d38OFCxw9ehSv15vsUoDIK5GKigp++ctfJruUqBQwREREZuHMmTO43e6k9mY4nU62bt2a0uNDFDBERERm6eLFixw9epRjx44ldH0Mu93OU089Nedt2xNJAUNERGSO/H4/X375JceOHeP06dNxuYbFYmHt2rU8/PDDLF++PC7XiAcFDBERkXkKh8OcP38ej8fD5cuX+e677+bdptVqZd26dWzZsoXMzEwDqkwsBQwREREDhcNhenp66Orq4ttvv6W3t5dAIBDzVcrEhmR5eXnY7XZWrlzJqlWrkrYLqlEUMERERBIgHA5z6dIlxsbG6O3tpaCggLS0NNLS0lJuiqkRFDBERETEcKmxnqiIiIj8pChgiIiIiOEUMERERMRwChgiIiJiOAUMERERMZwChoiIiBhOAUNEREQMp4AhIiIihlPAEBEREcMpYIiIiIjhFDBERETEcAoYIiIiYjgFDBERETGcAoaIiIgYTgFDREREDKeAISIiIoZTwBARERHDKWCIiIiI4RQwRERExHAKGCIiImI4BQwRERExnAKGiIiIGE4BQ0RERAyngCEiIiKGU8AQERERwylgiIiIiOEUMERERMRwChgiIiJiOAUMERERMZwChoiIiBguPdkFiIiI/FQNDw8zPDzMyMgIIyMjhMNhwuEwACaTibS0NBYsWEB6ejrp6eksXLiQtLSfxu/+ChgiIiIGGR4eZmhoiFAoRCgU4tq1a4yNjc34/PT0dMxm842vrKysOFYbX6ax2dy5iIiI3CQcDjMwMMDAwACDg4OMjIwY1vaiRYvIysrirrvuwmw2G9ZuIihgiIiIzMHo6ChXrlzhypUrDA0NxfVaCxYsICcnh+zs7B9Nr4YChoiIyCz19/fT39/P4OBgQq+7YMECFi9ezOLFi8nMzEzotWdLAUNERGSGQqEQfX199PX1JbWOzMxMLBYLVqs1qXVMRQFDRERkBvr7+wkGg4RCoWSXcoPVasVqtbJw4cJkl3IbBQwREZFp9Pb20tvbe2OKaSq56667yMvLY9GiRcku5SYKGCIiIjGMjo7S29tLIBBIdilTMpvN5OXlkZ2dnexSbvhprOYhIiJisHA4/KMIFxAZG3L58mUGBgaSXcoNChgiIiJR/FjCxYRr165x+fLlhM9siUUBQ0RE5BaBQIDe3t5klzFroVCIQCDA9evXk12KAoaIiMhkV69eJRgMJruMORsYGCAQCMxqifJ40F4kIiIi44aHhwkGgwwPDxva7sjICH6/nwsXLtDf38/o6ChZWVnk5eVxzz33kJuba+j1+vr6yMzMTOo6GQoYIiIi4/r6+gwdwzA8PMzJkyc5efIkp06dinpMXl4eK1as4Be/+AX5+fmGXbuvr+/GpmnJoGmqIiIiwODgIH6/37DNykKhEO3t7fz73/+e0fE2m41f/epXFBQUGHJ9iCzEdffddxvW3mxoDIaIiAhw5coVw8LF4OAg//rXv2YcLgD8fj+fffYZJ0+eNKQGiKw+mqypqwoYIiJyxxscHOTKlSuGtdfV1cXx48dnfV4gEOD48eOG1RIOh7l69aohbc2WAoaIiNzxBgYGDFsGPBgM8tVXX835/LNnz9LZ2WlILRC5t2Tsn6KAISIid7SRkRFDXyOcP38ev98/rza++eYbwwKP0fc3UwoYIiJyRxscHDR0Yar5houJNi5dumRANRGDg4MJXxdDASNFdby2FpPJhMn0OE3fTH2s//1tkWP/5EtMcTPip+VJEyaTifynW+ie7mgD7yE1Pw8RSVVDQ0OGtnf58mVD2jFyLY6hoaGEvyZRwEhFIS8HXu8Amw0bHtwfdSS7onnx76vF9f50EUNEJPHC4bDhAcMoRm8Nr4AhhD7z0OCH4p01VAIdrx/Am/jxOQby0/KCi5bTya5DRORm169fN3zfDqNWz8zIyDCknQnXrl0ztL3pKGCknCCe9xsBG9s21lL2vzbwN9By6Me7Lr7NZgN/C5UvTf+qREQkkeKxKdg999wz7zaWLFnCsmXLDKjmB4neAE0BI9V8c4CmvYCtBud6MyUbq7ABTX89MMeHc5CujxrY4Swi32TCZMqnyLmDho+6uDWyhNobKDGZMJlKaDh2e5dJ977xsQ2OBnyzmFZd814ztTZgfyV1++YYMfxe3Du3UVIQGddhKihh20433lmNpbr1szCxwrGNmjc9dMfKbyN+fO/P7PMD8P0p0m5D+0TNj1OUP3Gt2OeJSHIYvecIwL333suSJUvm1UZBQQHp6cbu5nH9+nXDX7tMRQEjxXR/1ooHKH6hDAdg3rCNujXAITets12z5WoHjVsKKSp30XQkQO4GJ86NdkJHmnCVF1G4pZGOSUHBvL4W9ysOwIfrOTc3jfw43ULd062Ag/o3a3Fkz6KOXCf1f6vFBrQ+XTfrVyXdB2soyS+l5u1WfDhwbnTiNHfT+nYNpfkl1BycSWjppuXpic8ihH2jE+dGJ+bTrbh/9zgrNtXh/f6WU057qHk0n5KKSedsyCUw8fk5Ywetnk8bKC0upebtLqyrnTjX2+luj5y39ncehQyRFGHUyp2TLV26lJUrV875/LvvvpsHH3zQwIoiwuFwXO43FgWMlNJB6188QDGVG4vHv1eM8+lioIPdH3qZ+VCMIJ6Xyqg76Me2/V06Az10eg9z+JM2TgU6aX7Ogf9gHWV/nNymmeLn3dSvB9rrcP114sHdTdPOSlqBsnea2bVu9hvnmDfW0/yiDWilcmfTzHtjjjdSucWNDwe7PD2Mfd3G4U8Oc/jLHnq89ZTZfLi31Ew70yZ0pInafX5s25s5NXyKtk8Oc/iTw3SePUXzdhu0N1K3d3Kk6qZp5+O428H+zLt0BsbP8XbSE/iC3Ztt+I+4KN/ZSrROFPfLLoae+ZieiWv5ThH4rB4H0P2mi6bZL/AnInEwOjoal3aLioooLCyc9XmLFi2iuLh43j0gsagH4w4VOnKA3ceBTdWUr/nh+8WbqykD/H9uwXPrb9mxHG/C9bYf1uyidU8VhZPHHFkLqXi1kfo14H+tkebJD2dzMbVvRh6Ent9Gehs63qhkxyHgiWbe+h/7HO/OjPPlVnatAQ7toOavM4kYQTzv1OEDyv/WTP0m200/tW3YRdPr5YAH13tTh6+gvws/ULLRgX1yr2O6nYqX63E+4CD3664bwSd0pAnXIWBNPc23fX7F1LZEXvv499XTHC0srNmN+5UybJOuZX2klvoXATr44uv5z5MXkfmL1wPXYrFQUlJCUVHRrM559NFHeeihh+JSE5DQtTAUMFJGiLZPm/AD5dsf56bH+APbqHoGoImmGb0OgO7PPXQAxU9vi/46w+yg7Ekb4MHbcfPDzrxu4lVJK7X/XUr1Cz6wVdD8agVzjRcAZDtwvbmLYsDz2+l7HQh9gfdtgGqqNke/sm1DJRWAf6+PrimaMmdHtkBu3dNIU3s3ocm9hA9UcfjrNg6/88P9dRxpwA84d1bgiNZhk+2k8qVIz1LzkdunEduedFJ823fN5OZGQlIocb2UIpIkVquVRx55hF//+teRwe4xZGZmUlRURGlpKatXr45rTYkMGMaOIJG5+95Dy5/9QBWVG2/9h2jFubkK9jbh+UsrHc/URnl4TRai+2svAD3v1VF6KMZhPZE/Wr7qppnJ1xx/VfL3tbiOePFjo+L1eirun8uN3cz8iAv3HzyU/MnDju2NrPVNcS/nusfHgXiof7KUxqgHDUV6Hfxf0HUOiu+L3pR1YxW7Nxyg7oibHQ43O7DjeKKMbVvLKdtYQuHSySnCT/f4NgLO1bEjlf2BEqCDjq97CFLM5E6Okvvzo56Tf38J0BqzTRFJLJPJFNf2c3JyWLduHStXrryxhHggEGB0dJTs7GyWLl2KzWbjvvti/OdlsHjf72QKGCmi+2ATTQA0sW1ZU+wDj+/mwJFqijdMNQ4iiH98IKX/hBf/iTkUZC7EWVYM7R2AnaKC6A/MOTSM4yU3uw6W0NBeR/UbTtqejxExvvcTiUnd+D6d5wRXczG1n3RQ/HY9je8cwHOiG99+N779buoA+6Zadu/ZTfksQpR12fhn8n1wFmNjRCSVpKUlpiM/JyeHBx98MC6DN2cjUfcLekWSIrrx7vcANgo3RGY3RP16yAb4adg33SwEM9alkb9VfNjD2NjY1F9/cNzWQuhYI7UvT3T9+3A910iHUU/RbAeutyPjPHwvVNMYa8Cj2Rzp3bDV88V09zB2gIrpfgFIt+F87i0+/rKHoUudtLW+S+0zDuxA96FGtjlcs1rQLHhpvAvofhvGLKsjIolm9FTQVLdgwYKEXUsBIxUcb8V9CLDV0OSNzG6I+rWvLvLA3dvEgSnHL1jJL4j0Cni/msNv/qEOGp9z4cNG9d87+fhZG7S7qH6jw7Df1M3ra2n8Y2RKbN2zDbRFm+55fyElcOP1h5HMSwtxbK1i93ttnAocjgw+9TfgOw5gw7468srI+2Xsz6/7qzYAivNzmf28GhFJBXdSwMjIyEjo/SpgJF0I74e7IwMyx9e+iGlNOdWbgBnsT1K8oZJiwL/nAN6oazVENiNb4SilZv/kQZ4hOt6oxtUOtu1uXJsLKfu9mwob+H5fTWOUBbjmxozj+cbxKbEuql9uu/0QawnOZwBaaT4U/UEfam9gbX4RpVsa8cUcOOnH80IppatLoveWWIsoKrj5W8WPRBY48+5pwRftlq96aX69A7CxzTH1iBgRSV0LFy5MdgkJk+h7VcBItlAb3r1+bl77IhY7zifKgBnsT7KmEtd2G/gbqaxouHnFy5EgvjeqqN0P3acLKdvwwwDP0LFGqn8fmTXifqU8MvTzvnLqXy0nHq9Kat+IvCqJvr2xlbKdE1NmK6l5/+ZVMEPftFL3vIsOfxdDG5w4YgZzG4WrzXhPRHpLbl1QK/h/Tby1H7BVU/xA5HvmDVXUbwKOu6jc2UTX5AsHO2isqKTRHwlhVevndPcikgIyMjISOi4hmRQw7jDBQy00+IE1lTjXTHs49s1VVMEM9iexUb6nlfoNNvwHXZTm51PkLKX0sVKKludS8oIHv81J/Ue7KRsfr8FV3/irESh/tZ7ySWMa7Nt38+4mIr0Nr/ni8Kokxs/X7aL5wyrs+HBXFJFbUELpY6WUOlawqGDb+EJYB2iONVB0ov7/quetzZFXPaXLIj03pY+VUro6n9xHXfhwUP1O7Q+fBXaq9nxM9Xro3ruDotwVlDxWSqmziPzctZEFzDbU07qnnNiTz0Qk1S1cuBCzOX4vOfv7+zl37tyMv+IpnvcZzZ3z8ikl+fG8H5kxUva78mmmno5bWkbFi9D0WmR/kl1bq1gU69hsB7s+6aLsoBv3m818fMRLF2B7yEnVzmpqnyuftIBUCN8btbjagU3vsnv7rdMz7VT95V1aC3bgebmWxo1edq034h+rGceLbuo9ayPXjsL+xLt0nq2g6RU3zZ+24v00Uo/jiWoqn3VRvWEGj3hzMdWtHazd30TT3o/xfuqNzFB5wEH5sy6qX67GeWsz95fx1mc9lO/bTcs+Dx9/GpmyW7i5mrpnqqnaWqjBnSI/AYsWLWJwcNCw9vr7+zlx4gSdnZ309fXN6lyLxcLy5cu57777WLVqlWE1paenJzxgmMYSueqGiIhIihkcHJx378F8QkUsE2Fj1apV814nY/HixVMu9hUPChgiInLHO3/+PAMDA7M+byJY+Hy+OFT1A4vFwm9+85s5Bw2bzcbixYsNrmpqChgiInLHCwaDXLx4cVbntLW1xT1Y3MpisfDkk0/OKiyYzWbuvffehK6BAQoYIiIiDA8P09PTQyg0/RD2/v5+/vGPf3DmzJkEVHY7i8VCUVERJSUlMzp+2bJl5Obmxrmq22mQp4iI3PEyMjLIycmZNmCcO3eODz74IEFVRdfX13ej52S6kGE2m8nOjrbjZfxpmqqIiAiR/UKysrJi/ry/vz/p4WIyn89HW1uURQonWbx4MRkZGQmq6GYKGCIiIkSmcloslpg7jiZ6vMVMdHZ20t/fH/VnOTk5WCyWBFf0AwUMERGRcTk5OVit0Ve4OXv2bIKrmV5fX1/UuhYuXDhlWEoEBQwREZFJrFZr1HELRq1vYbRb6zKZTOTm5k75uicRFDBEREQmycjIwGq1JnzlS6Pk5uYm9dXIBAUMERGRW2RlZZGXl/ej223VarWSl5eX7DIABQwREZGosrOzWbJkyY8mZFitVpYsWZIyu8NqHQwREZEYcnJyMJlM9Pb2JruUKeXm5pKXl5fw1TqnkhoxR0REJEVlZ2ezbNky7PZbd5lODatXr2bp0qUpFS5AS4WLiIjMyIULFzh69CherzfZpQCRVyLV1dX87Gc/S3YpUSlgiIiIzMKZM2dobm7m9OnTSavB6XSydevWlB4fooAhIiIySxcvXuSf//wnx44dIxgMJuy6drudp556as7btieSAoaIiMgc+f1+Tpw4weeffx63Hg2LxcLatWt5+OGHWb58eVyuEQ8KGCIiIvM0NjbGuXPn8Hg8XL58me+++25e7VksFvLy8vj5z3/Oli1byMzMNKjSxFHAEBERMdDY2Bj/+c9/6Orq4ttvv6W3t5dAIBBzqfGJVTfz8vKw2+2sXLmSVatWJW0XVKMoYIiIiCRAOBzm0qVLQCSETCyKlZaWltRNyeJFAUNEREQMp4W2RERExHAKGCIiImI4BQwRERExnAKGiIiIGE4BQ0RERAyngCEiIiKGU8AQERERwylgiIiIiOEUMERERMRwChgiIiJiOAUMERERMZwChoiIiBhOAUNEREQMp4AhIiIihku/fv16smsQERGRn5j/BzfKPHvcY/5sAAAAAElFTkSuQmCC;" vertex="1" parent="UEzPUAAOIrF-is8g5C7q-107">
          <mxGeometry x="414" y="474.87" width="126" height="102.25" as="geometry" />
        </mxCell>
        <mxCell id="tLcVWLizjV6hdJb5gyHF-92" value="" style="sketch=0;outlineConnect=0;fontColor=#232F3E;gradientColor=none;fillColor=#4D27AA;strokeColor=none;dashed=0;verticalLabelPosition=bottom;verticalAlign=top;align=center;html=1;fontSize=12;fontStyle=0;aspect=fixed;pointerEvents=1;shape=mxgraph.aws4.download_distribution;" vertex="1" parent="UEzPUAAOIrF-is8g5C7q-107">
          <mxGeometry x="301" y="487.01" width="78" height="78" as="geometry" />
        </mxCell>
        <mxCell id="tLcVWLizjV6hdJb5gyHF-93" value="提取二维码或者下载链接" style="text;html=1;align=center;verticalAlign=middle;resizable=0;points=[];autosize=1;strokeColor=none;fillColor=none;" vertex="1" parent="UEzPUAAOIrF-is8g5C7q-107">
          <mxGeometry x="260" y="565.01" width="160" height="30" as="geometry" />
        </mxCell>
        <mxCell id="tLcVWLizjV6hdJb5gyHF-94" value="" style="edgeStyle=none;rounded=0;orthogonalLoop=1;jettySize=auto;html=1;exitX=0.492;exitY=1.025;exitDx=0;exitDy=0;exitPerimeter=0;" edge="1" parent="UEzPUAAOIrF-is8g5C7q-107" source="tLcVWLizjV6hdJb5gyHF-26" target="tLcVWLizjV6hdJb5gyHF-12">
          <mxGeometry relative="1" as="geometry">
            <mxPoint x="72" y="460" as="sourcePoint" />
            <mxPoint x="72" y="500" as="targetPoint" />
          </mxGeometry>
        </mxCell>
        <mxCell id="tLcVWLizjV6hdJb5gyHF-96" value="" style="edgeStyle=none;rounded=0;orthogonalLoop=1;jettySize=auto;html=1;exitX=0.503;exitY=1.111;exitDx=0;exitDy=0;exitPerimeter=0;" edge="1" parent="UEzPUAAOIrF-is8g5C7q-107" source="tLcVWLizjV6hdJb5gyHF-27" target="tLcVWLizjV6hdJb5gyHF-92">
          <mxGeometry relative="1" as="geometry">
            <mxPoint x="92" y="480" as="sourcePoint" />
            <mxPoint x="92" y="520" as="targetPoint" />
          </mxGeometry>
        </mxCell>
        <mxCell id="tLcVWLizjV6hdJb5gyHF-97" value="" style="edgeStyle=none;rounded=0;orthogonalLoop=1;jettySize=auto;html=1;exitX=0.526;exitY=1.067;exitDx=0;exitDy=0;exitPerimeter=0;" edge="1" parent="UEzPUAAOIrF-is8g5C7q-107" source="tLcVWLizjV6hdJb5gyHF-54" target="tLcVWLizjV6hdJb5gyHF-89">
          <mxGeometry relative="1" as="geometry">
            <mxPoint x="102" y="490" as="sourcePoint" />
            <mxPoint x="102" y="530" as="targetPoint" />
          </mxGeometry>
        </mxCell>
        <mxCell id="tLcVWLizjV6hdJb5gyHF-100" value="" style="shape=image;verticalLabelPosition=bottom;labelBackgroundColor=default;verticalAlign=top;aspect=fixed;imageAspect=0;image=data:image/png,iVBORw0KGgoAAAANSUhEUgAAARAAAABsCAYAAACine0bAAASP0lEQVR4nO3dX2hb593A8a9evNWwXHjQgBzSzepamEwDkZkhEuQiKh5EoheR8CA2HXtRGDgOhc1uoKvaC0feRRLnvViTQhu3y4IUmLCyrFiBBSsXbaWwFsuhmzRIG6VdQGIqRLC4cbZsz3uhP9Yf/5GOJEuWfx8Q2EfPOed5pJ9/5znPOcePbnx8XC0vLyNEse985ztIXIhy33zzDR9//DEej4ef/exndMViMfr6+tizZ0+r6ybaxPLyMrdv35a4ECXS6TTpdJp//OMfhWVdAGNjYwwODrasYqK9XLp0idu3b0tciBLXrl3j3XffLVn2Py2qixCiA0gCEUJoJglECKGZJBAhhGaSQIQQmkkCEUJoJglECKGZJBAhhGaSQIQQmm2eQG5No9Pp0Omc+O5Xvp264sy9P02kCRXc0H0fTp0OnU7H9K2t3HEK30+y+3VeSW3ljtuHxEWRCNO5/RVep7a81S0hPRANIqd6GfW3uhaiLdz34dRZcJcvf9OC7ic+OvXw8uTJEx4/fiwJpDbZI43lzVbXQ7SLyPujBADwEFYKpRQq4sm+6R9ldkt7xluviQlktZuv26g7WdTdLLzWzNxl29swu2++78ip1e1ECt3tDU5J1jvSiBp1UlxECOUPJlNWzPnFB6zkUgiLic7sg3R1dfHUU081K4FEmNZVdvPd5rIv4r4P5zP5DF7EP0pvSSCssT3/KL1rrVvtvou2YxnJb8WB86B+k7Z5CKtwIUBELTotLsy8nu91vGFeXXw/weIapTtRDQkkwOgzZUcEnY7ekTW+qlP5I/Vqty7pc2S3MjJbGFQrdP+mwtkvoagc/jlCucG51JWzhSO/J5L7wtb5I65238UcvmRum3OM7N3gI5gKo9TrmDcosvNIXFTsq3BaU80BaXtrQg9ktVvn8LkKf2z6o5O5L9ZNKNdtNL9RnL2z4wuVgZcidDW3bNiL60B+uZnXI+WhUv2+V3mYPFrFl7x3hLk3JHVo16FxUb6nU0VjZFOTNSWe7ajxCaSo+xYY6S06Kq2OH6yeFxZf/qpifGGfgZKvdK8Bh+Z95wwbMNTQPKHRDoiLkuQx7CW5Aw44NSQQB96/q0KXsqJrWbMUvp8UBUeuu6p9e6I1JC5gjeTx+xE6++Qlq/E9kL0GBnI/rp5Dlr7mjuqBBIncgJYnUjYItZ7PEqUj7PcTpYNlVe9bbLkOjoudmjygKWMgZqxT2Z9KBqc2uHPRfaMwfMZsxbmuHuuR/ADaKONXirq55vLObe37FlulQ+Pi1vSOTR7QpPtAzP/rzZ2DurHkzzfzX2phYGn1S+VNy4bnu6uDXcXnsGuXrW7fohU6Ly5S+M4V7c0/Sm/Z1ahOf9ShOfeB7B1hTiXxDpcudviSJV1S8xtlZYa9JAuX4QLMfZj/8M28XrE9D+G/e6k4M65y36IFOi0u7oeY2+mPNBw6dEj9+c9/VkLk/fa3v1USF6LcH/7wB2W329W3vvUt9f777yullJJnYYQQmkkCEUJoJglECFEzeZxfCFE3SSBCiJo1+XF+IcROIAlECKGZJBAhhGaSQIQQmkkCEUJo1gWQTqdZWlpqdV1Em8hkMoDEhSiVj4tiXbt378bv3+lPBIlyEheiGl3pdJq+vj727NnT6rqINrG8vMyXX34pcSFKLC8vk06nS5Z1AYyNjTE4ONiSSon2c+nSJW7fvi1xIUpcu3aNO3fulCyTQVQhhGaSQIQQmkkCEUJoJglECFEzeZxfCFE3SSBCiJrJ4/xCiLpJAhFCaCYJRAih2bZNICu3prHoplenKWyh1BUnuqK6lP9ejXZqz3bWTp+j5rjIxPGddGJ5Pju7Xe8+O5NX4lQ+ytZ62zKBZD6dwXnE3RZB0gid1p5W6YjP8WGE6cP9jF4F+9Q8C6F5Zl4C70g/tlMRVlpdvzJdra5ATVZShH4zzrGTARKtrksjdFp7WqWDPseE34P7lgNvYo6RvtzCQzbMBjvP/tyD9+g8rudaWsUSm/ZA8t2u4K0Z7M/r0D1vwX0jlwczcQKnjhW6Ws+ajzF9NV7IkpkPTlTOfJ4JckKnQ/fTAMXTDmfLThLaIMVGzvTy4skwhl/ME/5dxeyntXu4cf0BeJIidGaTMho1vD1bSOKiGXGRIf5ZAv0RJ+a+0ncMB22YCZL6uq4dNFyVpzBv4Xo5hOX0AvNTJ7CbugtdLeeFJNapeRZCc0zsS/CWox9rrqvVY7LgIEA4WnT29rcocwCXw8QKn3aG8PXzMGZloHv9WnTvGuFsKMrCORuGevtODyNMD/XjvJCg/5W5ovpbcflzIbwSZebHJl5850GhO+mxPWC2qI31aGh7WkLiorFx0YPtXIxkYARD2TuZeJQIJro3+BxaYrNJlJM+hwLUePBRyfLF0yYFDuVNlJaPXbApsKmLd5RS6q66OITST4VX1ztnUhwwKzMmdTaaW/hoQU2AcgUeVD3Rb7ZeHhXevOia7r5XXM+8R2rhVYMyDl9UsXwZ/YSaL6vWoz9NKH3RuuV10VK3etvTSNVMri1xsTVxoZRS6p9h5TmA4vBFdVdLoxqkjsm1HVj2Fae+KCFfFF4dx1HW1TIOu3ARxHczARgYOGwiFQgTBSBFPBLFcXwS5/4o4Xguoy9F8OLAOthTZzqsVorozSAMj2IvOZ/sxnr6LrHfuzCSIPJBEA72QjRE6ObqK5zppp8gwU9S6+1gh5C4aHpcPIwze9yB+94I3guuip5Jq2ns8K2wsgTW4wYqelRP92IAZlMpwIDJ7ET/yyCLn09g2htj0W/C8isHlpdgMhpj5aieeGSO1NA45r31NaZ6SeI3gOMG9OuWSZG4CjCJfZ3/7Ke/l4QNtrDzSFxAA+MiE2Ha4cAdt3Lx5uzqoGobaf5l3P1mRglls/JfInixYdkPxsFxuBwhToLF61FMhwe2MLuuQLUHiakwSqk1X8nXTE2tZUeTuNjYPR/HBi24HzmZj3hx/bDdBj+yNCaQbrr3Q+hOonLA6OskCcDRl8vA3QNYxyAQjRGNhkiNWTACPUYT1tQi8Y8iBG+YGD20lX+MBowvA58lKuIl5R/lWbOb0EM9+iHgw9i2vzS4dSQuGmFlaQa7eZR541kWb7yFrQ17HnkaE4gJ64gJzpwncK/0nbh/llnMWE3540YPAwcdcNnH+Q9DWE1GegCeG8CqD+D9tZeA3ollfx2tqJke0yEb+L3Mf168PEHI7yPxTD/9uwxYj9rgxnlmPyr9c1j5yM1Ab//qZUuRI3FRd1zc8+E6PMnikJfwHycw7dK+qWZKp9N88cUX2m8kM42dxxOwMGq2Ezs3jlW/QvzKeTzvhjBPhXG9sFpWP2jDmjrG7GU9nlfyAWTAdATcbwfRvzZB444zEaZ1FtxTYdQb5nVLGYbdeN6xcOygnUSu/tG3J5n0m/F84siewebKuA/2Ez99lvEfdZP6NMDsuVmSQ15cQ+3ZrWwliYt64iJD8PQEvpQRhz5J4MxMRQnjkQlsbXAj2e7du/nBD35Qx52ou8y8fj2G8TcznH3TzvTnYDjgYjJ4l/HDZYNozw1g2w+hpVHMhQDqwWh2wNsBRg9ZKgfdmm2XmddvxDD+X77+eowvjeKNexjJn28Wl3nHyYsnQf+CFfsvF/D+wirDp2uRuNAeF5kwwbdTQIrAmUkCaxTxHGyPBFKw2fX+bSnhVY6pdrijYnuq5j6QbUnioi513AeyvcSve1nZK/0DUUriovE6MIFECX5ixTPcbrfciNaSuGiGbfkExsZMTLwn92eIchIXzdCBPRAhxFaRBCKE0EwSiBBCM0kgQgjNJIEIITSTBCKE0EwSiBBCsy7IPlm3tLTU6rqINpHJZP9XqcSFKJaPC4AnT57w+PFjunbv3o3fv86/VhI7lsSFqEZXOp2mr6+PPXv2tLouok0sLy/z5ZdfSlyIEsvLy6TTaQC6urp46qmnsqcwY2NjDA4OtrRyon1cunSJ27dvS1yIEteuXePOnTsly2QQVQihmSQQIYRmkkCEEJpJAhFCaCYJRAihmSQQIYRmkkCEEJpJAhFCaCYJRAih2fZKIJk4vpNOLM/r0Ol09O6zM3klTmbzNZsqdcWJTjdNZJ3fq7FyaxpLjeuInE6LizZtz1q2TwJ5GGH6cD+jV8E+Nc9CaJ6Zl8A70o/tVKRyMudtJPPpDM4jbkkeWnRaXGyz9mybaR0Sfg/uWw68iTlG8rOVH7JhNth59ucevEfncbXTlH/VWEkR+s04x04GmjbTe6frtLjYLu3JP86/aQ8k3+0K3prB/rwO3fOW1dnHM3ECp44VulrPmo8xfTVeyJKZD06g0znx3S/aYCbICZ0O3U8DpIoXf3ACnW6S0JopNkP8swT6I07MfaXvGA7aMBMk9XUNrc97uHH9AXiSInRmkzIaRc708uLJMIZfzBP+naMBW9w6EhfNiIsmtaeJqjyFeQvXyyEspxeYnzqB3dRd6Go5LySxTs2zEJpjYl+Ctxz9WHNdrR6TBQcBwtGis7e/RZkDuBwmVvi0M4Svn4cxKwNrzqbcg+1cjGRghPJ5xTLxKBFMdNc6C/PDCNND/TgvJOh/Za6o/lZc/lwIr0SZ+bGJF995UOhOemwPmC1qYz26d41wNhRl4ZwNw7bpCxaTuGhsXDShPU2Sf5x/08m1kz6HAtR48FHJ8sXTJgUO5U2Ulo9dsCmwqYt3lFLqrro4hNIXTWi8eM6kOGBWZkzqbDS38NGCmgDlCjyobbbff4aV5wCKwxfV3drWVHffK65n3iO18KpBGYcvqli+jH5CzZdV69GfJpS+aN3sZ+RR+VaW/14NLes0SzWTa0tcbE1c1NueRqpjcm0Hln3FqS9KyBeFV8dxlHW1jMMuXATx3UwABgYOm0gFwkQBSBGPRHEcn8S5P0o4nsvoSxG8OLAO9lSfAh/GmT3uwH1vBO8FV0XG3liK6M0gDI9iLzmf7MZ6+i6x37swkiDyQRAO9kI0ROjm6iuc6aafIMFPUuvtYIeQuGh6XNTVnubT2HFeYWUJrMcNVPSonu7FAMymUoABk9mJ/pdBFj+fwLQ3xqLfhOVXDiwvwWQ0xspRPfHIHKmhccx7q9x9JsK0w4E7buXizdnVwaaqJYnfAI4bWH+u9hSJqwCT2Nf5z376e0nYYAs7j8QFNDAu6m5P8zX/Mu5+M6OEsln5LxG82LDsB+PgOFyOECfB4vUopsMD1WXXez6ODVpwP3IyH/Hi+qGWk8IVqPYgMRVGKbXmK/maTNasmcTFxhrSnubTmEC66d4PoTuJygGjr5MkAEdfLgN3D2Adg0A0RjQaIjVmwQj0GE1YU4vEP4oQvGFi9NDmH/rK0gx28yjzxrMs3ngLm+aMbMD4MvBZoiJeUv5RnjW7CT3Uox8CPozJJdaqSVw0QuPa03waE4gJ64gJzpwncK/0nbh/llnMWE3540YPAwcdcNnH+Q9DWE1GegCeG8CqD+D9tZeA3oll/ya7vOfDdXiSxSEv4T9OYNqlreZZekyHbOD3Mv958fIEIb+PxDP99O8yYD1qgxvnmf2o9M9h5SM3A739q5ctRY7ERd1x0dD2NJ/mi4emsfN4AhZGzXZi58ax6leIXzmP590Q5qkwrhdWy+oHbVhTx5i9rMfzSj6ADJiOgPvtIPrXJtj4OJMheHoCX8qIQ58kcGamooTxyAS25wAiTOssuKfCqDfM627RMOzG846FYwftJHL1j749yaTfjOcTR/YMNlfGfbCf+OmzjP+om9SnAWbPzZIc8uIaas9uZStJXNQTF7W0p01Ud7nOobx/X+PNBzE1N+VS5udQgDIccKmzwbvqUUXBRXV2Pwom1ELRm3d/l70UOPGnyjVK9zOvxsnuY72XJ5IvHFYeUExVcbHsn8X11yvjSxPKG3+0QRmU/gWrcp1eUMl/l39GO/EyrsRFQ+OipvZsvbUu426aQLalhFc5qgkUsaZqEsi2JHFRlzruA9le4te9rOyVy6uilMRF43VgAokS/MSKZ7jdbrkRrSVx0Qzb8gmMjZmYeE/uzxDlJC6aoQN7IEKIZss/zt/19NNPE4lE+Otf/9rqOok2kU6n+f73vy9xIUp88803fPe73+W///1vyfINLxvJS17yklf5K38VpiuRqP2G3K+++orvfe97Na/3r3/9C4Bvf/vb22ZdkPZuxX6lvVuzLjSmvX192fvru/I/1OI///kPWtZ7/PgxQPYfkWyTdUHauxX7lfZuzbrQ2Pb+PyEW7ZYZyFH7AAAAAElFTkSuQmCC;" vertex="1" parent="UEzPUAAOIrF-is8g5C7q-107">
          <mxGeometry x="4.4399999999999995" y="640" width="125.93" height="50" as="geometry" />
        </mxCell>
        <mxCell id="tLcVWLizjV6hdJb5gyHF-101" value="" style="edgeStyle=none;rounded=0;orthogonalLoop=1;jettySize=auto;html=1;exitX=0.52;exitY=1.1;exitDx=0;exitDy=0;exitPerimeter=0;entryX=0.5;entryY=0;entryDx=0;entryDy=0;" edge="1" parent="UEzPUAAOIrF-is8g5C7q-107" source="tLcVWLizjV6hdJb5gyHF-59" target="tLcVWLizjV6hdJb5gyHF-100">
          <mxGeometry relative="1" as="geometry">
            <mxPoint x="72" y="460" as="sourcePoint" />
            <mxPoint x="72" y="500" as="targetPoint" />
          </mxGeometry>
        </mxCell>
        <mxCell id="tLcVWLizjV6hdJb5gyHF-104" value="" style="sketch=0;outlineConnect=0;fontColor=#232F3E;gradientColor=none;fillColor=#4D27AA;strokeColor=none;dashed=0;verticalLabelPosition=bottom;verticalAlign=top;align=center;html=1;fontSize=12;fontStyle=0;aspect=fixed;pointerEvents=1;shape=mxgraph.aws4.search_documents;" vertex="1" parent="UEzPUAAOIrF-is8g5C7q-107">
          <mxGeometry x="443" y="612.13" width="68" height="78" as="geometry" />
        </mxCell>
        <mxCell id="UEzPUAAOIrF-is8g5C7q-74" value="AWS Cloud" style="points=[[0,0],[0.25,0],[0.5,0],[0.75,0],[1,0],[1,0.25],[1,0.5],[1,0.75],[1,1],[0.75,1],[0.5,1],[0.25,1],[0,1],[0,0.75],[0,0.5],[0,0.25]];outlineConnect=0;gradientColor=none;html=1;whiteSpace=wrap;fontSize=12;fontStyle=0;shape=mxgraph.aws4.group;grIcon=mxgraph.aws4.group_aws_cloud_alt;strokeColor=#232F3E;fillColor=none;verticalAlign=top;align=left;spacingLeft=30;fontColor=#232F3E;dashed=0;labelBackgroundColor=#ffffff;container=1;pointerEvents=0;collapsible=0;recursiveResize=0;" parent="1" vertex="1">
          <mxGeometry y="80" width="830" height="1540" as="geometry" />
        </mxCell>
        <mxCell id="tLcVWLizjV6hdJb5gyHF-3" value="&lt;font style=&quot;vertical-align: inherit;&quot;&gt;&lt;font style=&quot;vertical-align: inherit;&quot;&gt;初始27W条黑产域名&lt;br&gt;txt文件&lt;br&gt;&lt;/font&gt;&lt;/font&gt;" style="text;html=1;align=center;verticalAlign=middle;resizable=0;points=[];autosize=1;strokeColor=none;fillColor=none;" vertex="1" parent="UEzPUAAOIrF-is8g5C7q-74">
          <mxGeometry x="4" y="133" width="130" height="40" as="geometry" />
        </mxCell>
        <mxCell id="tLcVWLizjV6hdJb5gyHF-4" value="" style="sketch=0;outlineConnect=0;fontColor=#232F3E;gradientColor=none;fillColor=#4D27AA;strokeColor=none;dashed=0;verticalLabelPosition=bottom;verticalAlign=top;align=center;html=1;fontSize=12;fontStyle=0;aspect=fixed;pointerEvents=1;shape=mxgraph.aws4.glue_crawlers;" vertex="1" parent="UEzPUAAOIrF-is8g5C7q-74">
          <mxGeometry x="190" y="60" width="78" height="78" as="geometry" />
        </mxCell>
        <mxCell id="UEzPUAAOIrF-is8g5C7q-88" value="" style="edgeStyle=orthogonalEdgeStyle;rounded=0;orthogonalLoop=1;jettySize=auto;html=1;endArrow=open;endFill=0;strokeWidth=2;" parent="UEzPUAAOIrF-is8g5C7q-74" source="tLcVWLizjV6hdJb5gyHF-10" target="tLcVWLizjV6hdJb5gyHF-4" edge="1">
          <mxGeometry relative="1" as="geometry">
            <mxPoint x="108" y="99" as="sourcePoint" />
            <mxPoint x="160.00827256153138" y="99" as="targetPoint" />
          </mxGeometry>
        </mxCell>
        <mxCell id="tLcVWLizjV6hdJb5gyHF-8" value="title中能判断出是色情域名" style="text;html=1;align=center;verticalAlign=middle;resizable=0;points=[];autosize=1;strokeColor=none;fillColor=none;" vertex="1" parent="UEzPUAAOIrF-is8g5C7q-74">
          <mxGeometry x="390" y="70" width="160" height="30" as="geometry" />
        </mxCell>
        <mxCell id="tLcVWLizjV6hdJb5gyHF-9" value="title中能判断出是赌博域名&lt;br&gt;+&lt;br&gt;疑似赌博域名" style="text;html=1;align=center;verticalAlign=middle;resizable=0;points=[];autosize=1;strokeColor=none;fillColor=none;" vertex="1" parent="UEzPUAAOIrF-is8g5C7q-74">
          <mxGeometry x="70" y="190" width="160" height="60" as="geometry" />
        </mxCell>
        <mxCell id="tLcVWLizjV6hdJb5gyHF-10" value="" style="sketch=0;outlineConnect=0;fontColor=#232F3E;gradientColor=none;fillColor=#3F8624;strokeColor=none;dashed=0;verticalLabelPosition=bottom;verticalAlign=top;align=center;html=1;fontSize=12;fontStyle=0;aspect=fixed;pointerEvents=1;shape=mxgraph.aws4.data_set;" vertex="1" parent="UEzPUAAOIrF-is8g5C7q-74">
          <mxGeometry x="37.5" y="60" width="63" height="78" as="geometry" />
        </mxCell>
        <mxCell id="tLcVWLizjV6hdJb5gyHF-16" value="&lt;font style=&quot;vertical-align: inherit;&quot;&gt;&lt;font style=&quot;vertical-align: inherit;&quot;&gt;此爬虫负责截图确认网页是否为赌博页面（访问不了或者不是赌博域名则删除）+将重定向域单独存一个文件（对于重定向域截取跳转后截图）&lt;/font&gt;&lt;/font&gt;" style="ellipse;shape=cloud;whiteSpace=wrap;html=1;" vertex="1" parent="UEzPUAAOIrF-is8g5C7q-74">
          <mxGeometry x="4" y="240" width="211" height="115" as="geometry" />
        </mxCell>
        <mxCell id="tLcVWLizjV6hdJb5gyHF-23" value="" style="sketch=0;points=[[0,0,0],[0.25,0,0],[0.5,0,0],[0.75,0,0],[1,0,0],[0,1,0],[0.25,1,0],[0.5,1,0],[0.75,1,0],[1,1,0],[0,0.25,0],[0,0.5,0],[0,0.75,0],[1,0.25,0],[1,0.5,0],[1,0.75,0]];outlineConnect=0;fontColor=#232F3E;gradientColor=#4AB29A;gradientDirection=north;fillColor=#116D5B;strokeColor=#ffffff;dashed=0;verticalLabelPosition=bottom;verticalAlign=top;align=center;html=1;fontSize=12;fontStyle=0;aspect=fixed;shape=mxgraph.aws4.resourceIcon;resIcon=mxgraph.aws4.kendra;" vertex="1" parent="UEzPUAAOIrF-is8g5C7q-74">
          <mxGeometry x="551" y="235" width="75" height="75" as="geometry" />
        </mxCell>
        <mxCell id="tLcVWLizjV6hdJb5gyHF-1" value="" style="sketch=0;outlineConnect=0;fontColor=#232F3E;gradientColor=none;fillColor=#4D27AA;strokeColor=none;dashed=0;verticalLabelPosition=bottom;verticalAlign=top;align=center;html=1;fontSize=12;fontStyle=0;aspect=fixed;pointerEvents=1;shape=mxgraph.aws4.cloudfront_functions;" vertex="1" parent="UEzPUAAOIrF-is8g5C7q-74">
          <mxGeometry x="56.00000000000003" y="520" width="78" height="78" as="geometry" />
        </mxCell>
        <mxCell id="tLcVWLizjV6hdJb5gyHF-29" value="知识图谱可视化" style="text;html=1;align=center;verticalAlign=middle;resizable=0;points=[];autosize=1;strokeColor=none;fillColor=none;" vertex="1" parent="UEzPUAAOIrF-is8g5C7q-74">
          <mxGeometry x="40" y="610" width="110" height="30" as="geometry" />
        </mxCell>
        <mxCell id="UEzPUAAOIrF-is8g5C7q-100" style="edgeStyle=orthogonalEdgeStyle;rounded=0;orthogonalLoop=1;jettySize=auto;html=1;endArrow=open;endFill=0;strokeWidth=2;" parent="UEzPUAAOIrF-is8g5C7q-74" edge="1">
          <mxGeometry relative="1" as="geometry">
            <mxPoint x="230" y="559" as="sourcePoint" />
            <mxPoint x="140.00336087341384" y="558.5" as="targetPoint" />
            <Array as="points">
              <mxPoint x="185" y="559" />
            </Array>
          </mxGeometry>
        </mxCell>
        <mxCell id="tLcVWLizjV6hdJb5gyHF-58" value="" style="edgeStyle=none;rounded=0;orthogonalLoop=1;jettySize=auto;html=1;" edge="1" parent="UEzPUAAOIrF-is8g5C7q-74" source="tLcVWLizjV6hdJb5gyHF-28" target="tLcVWLizjV6hdJb5gyHF-57">
          <mxGeometry relative="1" as="geometry" />
        </mxCell>
        <mxCell id="tLcVWLizjV6hdJb5gyHF-28" value="跳转页面" style="text;html=1;align=center;verticalAlign=middle;resizable=0;points=[];autosize=1;strokeColor=none;fillColor=none;" vertex="1" parent="UEzPUAAOIrF-is8g5C7q-74">
          <mxGeometry x="307" y="630" width="70" height="30" as="geometry" />
        </mxCell>
        <mxCell id="tLcVWLizjV6hdJb5gyHF-57" value="" style="sketch=0;points=[[0,0,0],[0.25,0,0],[0.5,0,0],[0.75,0,0],[1,0,0],[0,1,0],[0.25,1,0],[0.5,1,0],[0.75,1,0],[1,1,0],[0,0.25,0],[0,0.5,0],[0,0.75,0],[1,0.25,0],[1,0.5,0],[1,0.75,0]];outlineConnect=0;fontColor=#232F3E;gradientColor=#F78E04;gradientDirection=north;fillColor=#D05C17;strokeColor=#ffffff;dashed=0;verticalLabelPosition=bottom;verticalAlign=top;align=center;html=1;fontSize=12;fontStyle=0;aspect=fixed;shape=mxgraph.aws4.resourceIcon;resIcon=mxgraph.aws4.elastic_load_balancing;" vertex="1" parent="UEzPUAAOIrF-is8g5C7q-74">
          <mxGeometry x="303" y="700" width="78" height="78" as="geometry" />
        </mxCell>
        <mxCell id="tLcVWLizjV6hdJb5gyHF-102" value="" style="sketch=0;outlineConnect=0;fontColor=#232F3E;gradientColor=none;fillColor=#4D27AA;strokeColor=none;dashed=0;verticalLabelPosition=bottom;verticalAlign=top;align=center;html=1;fontSize=12;fontStyle=0;aspect=fixed;pointerEvents=1;shape=mxgraph.aws4.search_documents;" vertex="1" parent="UEzPUAAOIrF-is8g5C7q-74">
          <mxGeometry x="452" y="822" width="68" height="78" as="geometry" />
        </mxCell>
        <mxCell id="tLcVWLizjV6hdJb5gyHF-103" value="" style="sketch=0;outlineConnect=0;fontColor=#232F3E;gradientColor=none;fillColor=#4D27AA;strokeColor=none;dashed=0;verticalLabelPosition=bottom;verticalAlign=top;align=center;html=1;fontSize=12;fontStyle=0;aspect=fixed;pointerEvents=1;shape=mxgraph.aws4.search_documents;" vertex="1" parent="UEzPUAAOIrF-is8g5C7q-74">
          <mxGeometry x="585" y="822" width="68" height="78" as="geometry" />
        </mxCell>
        <mxCell id="tLcVWLizjV6hdJb5gyHF-111" value="APK文件" style="text;html=1;align=center;verticalAlign=middle;resizable=0;points=[];autosize=1;strokeColor=none;fillColor=none;" vertex="1" parent="UEzPUAAOIrF-is8g5C7q-74">
          <mxGeometry x="625" y="905" width="70" height="30" as="geometry" />
        </mxCell>
        <mxCell id="tLcVWLizjV6hdJb5gyHF-126" value="" style="edgeStyle=none;rounded=0;orthogonalLoop=1;jettySize=auto;html=1;exitX=0.509;exitY=1.044;exitDx=0;exitDy=0;exitPerimeter=0;" edge="1" parent="UEzPUAAOIrF-is8g5C7q-74" source="tLcVWLizjV6hdJb5gyHF-29" target="tLcVWLizjV6hdJb5gyHF-134">
          <mxGeometry relative="1" as="geometry">
            <mxPoint x="352" y="670" as="sourcePoint" />
            <mxPoint x="94.08339735978211" y="1190" as="targetPoint" />
          </mxGeometry>
        </mxCell>
        <mxCell id="tLcVWLizjV6hdJb5gyHF-131" value="图链条关系" style="text;html=1;align=center;verticalAlign=middle;resizable=0;points=[];autosize=1;strokeColor=none;fillColor=none;" vertex="1" parent="UEzPUAAOIrF-is8g5C7q-74">
          <mxGeometry x="56" y="1251.5" width="80" height="30" as="geometry" />
        </mxCell>
        <mxCell id="tLcVWLizjV6hdJb5gyHF-133" value="" style="sketch=0;outlineConnect=0;fontColor=#232F3E;gradientColor=none;fillColor=#BF0816;strokeColor=none;dashed=0;verticalLabelPosition=bottom;verticalAlign=top;align=center;html=1;fontSize=12;fontStyle=0;aspect=fixed;shape=mxgraph.aws4.pinpoint_journey;" vertex="1" parent="UEzPUAAOIrF-is8g5C7q-74">
          <mxGeometry x="290" y="1176.5" width="78" height="75" as="geometry" />
        </mxCell>
        <mxCell id="tLcVWLizjV6hdJb5gyHF-134" value="" style="dashed=0;outlineConnect=0;html=1;align=center;labelPosition=center;verticalLabelPosition=bottom;verticalAlign=top;shape=mxgraph.weblogos.dzone" vertex="1" parent="UEzPUAAOIrF-is8g5C7q-74">
          <mxGeometry x="51.19999999999999" y="1190.3" width="87.60000000000001" height="61.2" as="geometry" />
        </mxCell>
        <mxCell id="tLcVWLizjV6hdJb5gyHF-135" value="" style="sketch=0;points=[[0,0,0],[0.25,0,0],[0.5,0,0],[0.75,0,0],[1,0,0],[0,1,0],[0.25,1,0],[0.5,1,0],[0.75,1,0],[1,1,0],[0,0.25,0],[0,0.5,0],[0,0.75,0],[1,0.25,0],[1,0.5,0],[1,0.75,0]];outlineConnect=0;fontColor=#232F3E;gradientColor=#60A337;gradientDirection=north;fillColor=#277116;strokeColor=#ffffff;dashed=0;verticalLabelPosition=bottom;verticalAlign=top;align=center;html=1;fontSize=12;fontStyle=0;aspect=fixed;shape=mxgraph.aws4.resourceIcon;resIcon=mxgraph.aws4.iot_analytics;" vertex="1" parent="UEzPUAAOIrF-is8g5C7q-74">
          <mxGeometry x="64" y="1330" width="60" height="60" as="geometry" />
        </mxCell>
        <mxCell id="tLcVWLizjV6hdJb5gyHF-132" value="" style="edgeStyle=none;rounded=0;orthogonalLoop=1;jettySize=auto;html=1;exitX=0.5;exitY=1.044;exitDx=0;exitDy=0;exitPerimeter=0;entryX=0;entryY=0.5;entryDx=0;entryDy=0;entryPerimeter=0;" edge="1" parent="UEzPUAAOIrF-is8g5C7q-74" source="tLcVWLizjV6hdJb5gyHF-29" target="tLcVWLizjV6hdJb5gyHF-135">
          <mxGeometry relative="1" as="geometry">
            <mxPoint x="105.99000000000001" y="651.3200000000002" as="sourcePoint" />
            <mxPoint x="104.08339735978211" y="1200" as="targetPoint" />
            <Array as="points">
              <mxPoint x="95" y="1000" />
              <mxPoint x="30" y="1000" />
              <mxPoint x="30" y="1360" />
            </Array>
          </mxGeometry>
        </mxCell>
        <mxCell id="tLcVWLizjV6hdJb5gyHF-136" value="域名相似度" style="text;html=1;align=center;verticalAlign=middle;resizable=0;points=[];autosize=1;strokeColor=none;fillColor=none;" vertex="1" parent="UEzPUAAOIrF-is8g5C7q-74">
          <mxGeometry x="55" y="1390" width="80" height="30" as="geometry" />
        </mxCell>
        <mxCell id="tLcVWLizjV6hdJb5gyHF-137" value="这部分之前人有做下载页面域名和下载APP链接之间的不同；可以根据APP的下载链接、支付平台的下载链接取相似度看看" style="ellipse;shape=cloud;whiteSpace=wrap;html=1;" vertex="1" parent="UEzPUAAOIrF-is8g5C7q-74">
          <mxGeometry x="83.4" y="1400" width="291.2" height="120" as="geometry" />
        </mxCell>
        <mxCell id="tLcVWLizjV6hdJb5gyHF-139" value="APP的角度分析" style="text;html=1;align=center;verticalAlign=middle;resizable=0;points=[];autosize=1;strokeColor=none;fillColor=none;" vertex="1" parent="UEzPUAAOIrF-is8g5C7q-74">
          <mxGeometry x="381" y="1205.9" width="110" height="30" as="geometry" />
        </mxCell>
        <mxCell id="tLcVWLizjV6hdJb5gyHF-140" value="看看微信和QQ可不可用" style="text;html=1;align=center;verticalAlign=middle;resizable=0;points=[];autosize=1;strokeColor=none;fillColor=none;" vertex="1" parent="UEzPUAAOIrF-is8g5C7q-74">
          <mxGeometry x="368" y="1235" width="150" height="30" as="geometry" />
        </mxCell>
        <mxCell id="UEzPUAAOIrF-is8g5C7q-75" value="AWS Cloud" style="points=[[0,0],[0.25,0],[0.5,0],[0.75,0],[1,0],[1,0.25],[1,0.5],[1,0.75],[1,1],[0.75,1],[0.5,1],[0.25,1],[0,1],[0,0.75],[0,0.5],[0,0.25]];outlineConnect=0;gradientColor=none;html=1;whiteSpace=wrap;fontSize=12;fontStyle=0;shape=mxgraph.aws4.group;grIcon=mxgraph.aws4.group_aws_cloud_alt;strokeColor=#232F3E;fillColor=none;verticalAlign=top;align=left;spacingLeft=30;fontColor=#232F3E;dashed=0;labelBackgroundColor=#ffffff;container=1;pointerEvents=0;collapsible=0;recursiveResize=0;" parent="1" vertex="1">
          <mxGeometry x="850" y="80" width="270" height="1540" as="geometry" />
        </mxCell>
        <mxCell id="tLcVWLizjV6hdJb5gyHF-18" value="" style="sketch=0;outlineConnect=0;fontColor=#232F3E;gradientColor=none;fillColor=#3F8624;strokeColor=none;dashed=0;verticalLabelPosition=bottom;verticalAlign=top;align=center;html=1;fontSize=12;fontStyle=0;aspect=fixed;pointerEvents=1;shape=mxgraph.aws4.data_set;" vertex="1" parent="UEzPUAAOIrF-is8g5C7q-75">
          <mxGeometry x="37.5" y="60" width="63" height="78" as="geometry" />
        </mxCell>
        <mxCell id="tLcVWLizjV6hdJb5gyHF-121" value="色情域名" style="text;html=1;align=center;verticalAlign=middle;resizable=0;points=[];autosize=1;strokeColor=none;fillColor=none;" vertex="1" parent="UEzPUAAOIrF-is8g5C7q-75">
          <mxGeometry x="34" y="138" width="70" height="30" as="geometry" />
        </mxCell>
        <mxCell id="UEzPUAAOIrF-is8g5C7q-89" value="" style="edgeStyle=orthogonalEdgeStyle;rounded=0;orthogonalLoop=1;jettySize=auto;html=1;endArrow=open;endFill=0;strokeWidth=2;" parent="1" source="tLcVWLizjV6hdJb5gyHF-4" edge="1">
          <mxGeometry relative="1" as="geometry">
            <Array as="points">
              <mxPoint x="279" y="350" />
            </Array>
            <mxPoint x="247.5" y="218" as="sourcePoint" />
            <mxPoint x="310" y="350" as="targetPoint" />
          </mxGeometry>
        </mxCell>
        <mxCell id="UEzPUAAOIrF-is8g5C7q-106" style="edgeStyle=orthogonalEdgeStyle;rounded=0;orthogonalLoop=1;jettySize=auto;html=1;endArrow=open;endFill=0;strokeWidth=2;" parent="1" source="tLcVWLizjV6hdJb5gyHF-4" edge="1">
          <mxGeometry relative="1" as="geometry">
            <mxPoint x="284.9917274384684" y="179" as="sourcePoint" />
            <mxPoint x="880.0082725615316" y="179" as="targetPoint" />
          </mxGeometry>
        </mxCell>
        <mxCell id="UEzPUAAOIrF-is8g5C7q-104" style="edgeStyle=orthogonalEdgeStyle;rounded=0;orthogonalLoop=1;jettySize=auto;html=1;endArrow=open;endFill=0;strokeWidth=2;" parent="1" edge="1">
          <mxGeometry relative="1" as="geometry">
            <mxPoint x="954.9917274384688" y="179" as="sourcePoint" />
            <mxPoint x="1057.5" y="310" as="targetPoint" />
          </mxGeometry>
        </mxCell>
        <mxCell id="UEzPUAAOIrF-is8g5C7q-91" value="" style="edgeStyle=orthogonalEdgeStyle;rounded=0;orthogonalLoop=1;jettySize=auto;html=1;endArrow=open;endFill=0;strokeWidth=2;entryX=0;entryY=0.5;entryDx=0;entryDy=0;entryPerimeter=0;" parent="1" source="tLcVWLizjV6hdJb5gyHF-19" target="tLcVWLizjV6hdJb5gyHF-23" edge="1">
          <mxGeometry relative="1" as="geometry">
            <mxPoint x="590" y="352.29999999999995" as="sourcePoint" />
            <mxPoint x="600" y="349" as="targetPoint" />
          </mxGeometry>
        </mxCell>
        <mxCell id="UEzPUAAOIrF-is8g5C7q-93" style="edgeStyle=orthogonalEdgeStyle;rounded=0;orthogonalLoop=1;jettySize=auto;html=1;endArrow=open;endFill=0;strokeWidth=2;" parent="1" source="tLcVWLizjV6hdJb5gyHF-23" target="tLcVWLizjV6hdJb5gyHF-25" edge="1">
          <mxGeometry relative="1" as="geometry">
            <Array as="points">
              <mxPoint x="762" y="353" />
              <mxPoint x="762" y="480" />
            </Array>
            <mxPoint x="762" y="388" as="sourcePoint" />
            <mxPoint x="677" y="480" as="targetPoint" />
          </mxGeometry>
        </mxCell>
        <mxCell id="UEzPUAAOIrF-is8g5C7q-105" value="重新输入到爬虫再次找关系" style="edgeStyle=orthogonalEdgeStyle;rounded=0;orthogonalLoop=1;jettySize=auto;html=1;endArrow=open;endFill=0;strokeWidth=2;" parent="1" edge="1">
          <mxGeometry x="0.1208" y="-10" relative="1" as="geometry">
            <Array as="points">
              <mxPoint x="919" y="270" />
              <mxPoint x="350" y="270" />
              <mxPoint x="350" y="312" />
            </Array>
            <mxPoint as="offset" />
            <mxPoint x="919" y="310" as="sourcePoint" />
            <mxPoint x="350" y="312" as="targetPoint" />
          </mxGeometry>
        </mxCell>
        <mxCell id="UEzPUAAOIrF-is8g5C7q-108" value="" style="rounded=0;whiteSpace=wrap;html=1;labelBackgroundColor=none;fillColor=none;dashed=1;container=1;pointerEvents=0;collapsible=0;recursiveResize=0;" parent="1" vertex="1">
          <mxGeometry x="860" y="290" width="250" height="940" as="geometry" />
        </mxCell>
        <mxCell id="tLcVWLizjV6hdJb5gyHF-115" value="" style="sketch=0;outlineConnect=0;fontColor=#232F3E;gradientColor=none;fillColor=#3F8624;strokeColor=none;dashed=0;verticalLabelPosition=bottom;verticalAlign=top;align=center;html=1;fontSize=12;fontStyle=0;aspect=fixed;pointerEvents=1;shape=mxgraph.aws4.data_set;" vertex="1" parent="UEzPUAAOIrF-is8g5C7q-108">
          <mxGeometry x="27.5" y="820" width="63" height="78" as="geometry" />
        </mxCell>
        <mxCell id="tLcVWLizjV6hdJb5gyHF-119" value="" style="sketch=0;outlineConnect=0;fontColor=#232F3E;gradientColor=none;fillColor=#4D27AA;strokeColor=none;dashed=0;verticalLabelPosition=bottom;verticalAlign=top;align=center;html=1;fontSize=12;fontStyle=0;aspect=fixed;pointerEvents=1;shape=mxgraph.aws4.service;" vertex="1" parent="UEzPUAAOIrF-is8g5C7q-108">
          <mxGeometry x="160" y="20" width="78" height="76" as="geometry" />
        </mxCell>
        <mxCell id="tLcVWLizjV6hdJb5gyHF-120" value="存取备用" style="text;html=1;align=center;verticalAlign=middle;resizable=0;points=[];autosize=1;strokeColor=none;fillColor=none;" vertex="1" parent="UEzPUAAOIrF-is8g5C7q-108">
          <mxGeometry x="168" y="109" width="70" height="30" as="geometry" />
        </mxCell>
        <mxCell id="tLcVWLizjV6hdJb5gyHF-122" value="" style="edgeStyle=none;rounded=0;orthogonalLoop=1;jettySize=auto;html=1;" edge="1" parent="UEzPUAAOIrF-is8g5C7q-108" source="tLcVWLizjV6hdJb5gyHF-115" target="tLcVWLizjV6hdJb5gyHF-123">
          <mxGeometry relative="1" as="geometry">
            <mxPoint x="140.40499999999997" y="710" as="sourcePoint" />
            <mxPoint x="530" y="720" as="targetPoint" />
            <Array as="points">
              <mxPoint x="150" y="859" />
              <mxPoint x="150" y="750" />
              <mxPoint x="60" y="510" />
            </Array>
          </mxGeometry>
        </mxCell>
        <mxCell id="tLcVWLizjV6hdJb5gyHF-123" value="" style="sketch=0;outlineConnect=0;fontColor=#232F3E;gradientColor=none;fillColor=#3F8624;strokeColor=none;dashed=0;verticalLabelPosition=bottom;verticalAlign=top;align=center;html=1;fontSize=12;fontStyle=0;aspect=fixed;pointerEvents=1;shape=mxgraph.aws4.backup_plan;" vertex="1" parent="UEzPUAAOIrF-is8g5C7q-108">
          <mxGeometry x="31" y="22" width="60" height="78" as="geometry" />
        </mxCell>
        <mxCell id="tLcVWLizjV6hdJb5gyHF-124" value="整理数据" style="text;html=1;align=center;verticalAlign=middle;resizable=0;points=[];autosize=1;strokeColor=none;fillColor=none;" vertex="1" parent="UEzPUAAOIrF-is8g5C7q-108">
          <mxGeometry x="60" y="109" width="70" height="30" as="geometry" />
        </mxCell>
        <mxCell id="tLcVWLizjV6hdJb5gyHF-7" style="edgeStyle=none;rounded=0;orthogonalLoop=1;jettySize=auto;html=1;exitX=0.55;exitY=0.95;exitDx=0;exitDy=0;exitPerimeter=0;" edge="1" parent="1" source="tLcVWLizjV6hdJb5gyHF-6" target="tLcVWLizjV6hdJb5gyHF-4">
          <mxGeometry relative="1" as="geometry" />
        </mxCell>
        <mxCell id="tLcVWLizjV6hdJb5gyHF-6" value="&lt;font style=&quot;vertical-align: inherit;&quot;&gt;&lt;font style=&quot;vertical-align: inherit;&quot;&gt;&lt;font style=&quot;vertical-align: inherit;&quot;&gt;&lt;font style=&quot;vertical-align: inherit;&quot;&gt;此爬虫过滤可用网站，收集网站标题、IP地址，地区，ISP，状态码，httpServer等；根据标题过滤掉色情域名，留下赌博域名&lt;/font&gt;&lt;/font&gt;&lt;/font&gt;&lt;/font&gt;" style="ellipse;shape=cloud;whiteSpace=wrap;html=1;" vertex="1" parent="1">
          <mxGeometry x="130" y="-40" width="260" height="100" as="geometry" />
        </mxCell>
        <mxCell id="tLcVWLizjV6hdJb5gyHF-17" style="edgeStyle=none;rounded=0;orthogonalLoop=1;jettySize=auto;html=1;exitX=0.96;exitY=0.7;exitDx=0;exitDy=0;exitPerimeter=0;" edge="1" parent="1" source="tLcVWLizjV6hdJb5gyHF-16" target="tLcVWLizjV6hdJb5gyHF-15">
          <mxGeometry relative="1" as="geometry" />
        </mxCell>
        <mxCell id="tLcVWLizjV6hdJb5gyHF-107" value="" style="sketch=0;outlineConnect=0;fontColor=#232F3E;gradientColor=none;fillColor=#3F8624;strokeColor=none;dashed=0;verticalLabelPosition=bottom;verticalAlign=top;align=center;html=1;fontSize=12;fontStyle=0;aspect=fixed;pointerEvents=1;shape=mxgraph.aws4.import_export;" vertex="1" parent="1">
          <mxGeometry x="880" y="990" width="78" height="61" as="geometry" />
        </mxCell>
        <mxCell id="tLcVWLizjV6hdJb5gyHF-105" value="" style="edgeStyle=none;rounded=0;orthogonalLoop=1;jettySize=auto;html=1;exitX=0.412;exitY=1.005;exitDx=0;exitDy=0;exitPerimeter=0;" edge="1" parent="1" source="tLcVWLizjV6hdJb5gyHF-102" target="tLcVWLizjV6hdJb5gyHF-107">
          <mxGeometry relative="1" as="geometry">
            <mxPoint x="352" y="750" as="sourcePoint" />
            <mxPoint x="352" y="790" as="targetPoint" />
            <Array as="points">
              <mxPoint x="480" y="1020" />
              <mxPoint x="660" y="1020" />
            </Array>
          </mxGeometry>
        </mxCell>
        <mxCell id="tLcVWLizjV6hdJb5gyHF-108" value="" style="edgeStyle=none;rounded=0;orthogonalLoop=1;jettySize=auto;html=1;" edge="1" parent="1" source="tLcVWLizjV6hdJb5gyHF-103">
          <mxGeometry relative="1" as="geometry">
            <mxPoint x="490.0160000000001" y="989.9965415784854" as="sourcePoint" />
            <mxPoint x="870" y="1020" as="targetPoint" />
            <Array as="points">
              <mxPoint x="620" y="1020" />
            </Array>
          </mxGeometry>
        </mxCell>
        <mxCell id="tLcVWLizjV6hdJb5gyHF-109" value="" style="edgeStyle=none;rounded=0;orthogonalLoop=1;jettySize=auto;html=1;" edge="1" parent="1" source="tLcVWLizjV6hdJb5gyHF-104" target="tLcVWLizjV6hdJb5gyHF-107">
          <mxGeometry relative="1" as="geometry">
            <mxPoint x="629.4887397114737" y="989.610437206421" as="sourcePoint" />
            <mxPoint x="880" y="1030" as="targetPoint" />
            <Array as="points">
              <mxPoint x="757" y="1020" />
            </Array>
          </mxGeometry>
        </mxCell>
        <mxCell id="tLcVWLizjV6hdJb5gyHF-110" value="APK文件" style="text;html=1;align=center;verticalAlign=middle;resizable=0;points=[];autosize=1;strokeColor=none;fillColor=none;" vertex="1" parent="1">
          <mxGeometry x="485" y="985" width="70" height="30" as="geometry" />
        </mxCell>
        <mxCell id="tLcVWLizjV6hdJb5gyHF-112" value="群或者个人" style="text;html=1;align=center;verticalAlign=middle;resizable=0;points=[];autosize=1;strokeColor=none;fillColor=none;" vertex="1" parent="1">
          <mxGeometry x="750" y="985" width="80" height="30" as="geometry" />
        </mxCell>
        <mxCell id="tLcVWLizjV6hdJb5gyHF-113" value="存储链条文件+下载文件" style="text;html=1;align=center;verticalAlign=middle;resizable=0;points=[];autosize=1;strokeColor=none;fillColor=none;" vertex="1" parent="1">
          <mxGeometry x="845" y="1045" width="150" height="30" as="geometry" />
        </mxCell>
        <mxCell id="tLcVWLizjV6hdJb5gyHF-116" value="将非同样二级域名的子页面&lt;br&gt;输入到爬虫中" style="text;html=1;align=center;verticalAlign=middle;resizable=0;points=[];autosize=1;strokeColor=none;fillColor=none;" vertex="1" parent="1">
          <mxGeometry x="835" y="1180" width="170" height="40" as="geometry" />
        </mxCell>
        <mxCell id="tLcVWLizjV6hdJb5gyHF-114" value="" style="edgeStyle=none;rounded=0;orthogonalLoop=1;jettySize=auto;html=1;exitX=0.5;exitY=1;exitDx=0;exitDy=0;" edge="1" parent="1" source="tLcVWLizjV6hdJb5gyHF-100" target="tLcVWLizjV6hdJb5gyHF-115">
          <mxGeometry relative="1" as="geometry">
            <mxPoint x="340.0160000000001" y="999.9965415784854" as="sourcePoint" />
            <mxPoint x="740" y="1040.4247104247106" as="targetPoint" />
            <Array as="points">
              <mxPoint x="347" y="1150" />
              <mxPoint x="520" y="1150" />
            </Array>
          </mxGeometry>
        </mxCell>
        <mxCell id="tLcVWLizjV6hdJb5gyHF-138" value="支付平台的角度分析" style="text;html=1;align=center;verticalAlign=middle;resizable=0;points=[];autosize=1;strokeColor=none;fillColor=none;" vertex="1" parent="1">
          <mxGeometry x="385" y="1255" width="130" height="30" as="geometry" />
        </mxCell>
        <mxCell id="tLcVWLizjV6hdJb5gyHF-141" value="分析模式(图算法+图分析)：&lt;br&gt;相似度" style="text;html=1;align=center;verticalAlign=middle;resizable=0;points=[];autosize=1;strokeColor=none;fillColor=none;" vertex="1" parent="1">
          <mxGeometry x="545" y="1270" width="170" height="40" as="geometry" />
        </mxCell>
      </root>
    </mxGraphModel>
  </diagram>
</mxfile>
